<?xml version="1.0" encoding="UTF-8" standalone="no"?>
<!-- Generator: Gravit.io -->
<svg xmlns="http://www.w3.org/2000/svg" xmlns:xlink="http://www.w3.org/1999/xlink" style="isolation:isolate" viewBox="16 -10 433 433" width="433pt" height="433pt"><defs><clipPath id="_clipPath_HvLsPBpiZfUzPdZ5mXFQsepiewtjRrrA"><rect x="16" y="-10" width="433" height="433"/></clipPath></defs><g clip-path="url(#_clipPath_HvLsPBpiZfUzPdZ5mXFQsepiewtjRrrA)"><circle vector-effect="non-scaling-stroke" cx="232.5" cy="206.5" r="216.5" fill="rgb(235,235,235)"/><clipPath id="_clipPath_KcbkR51f8kw3nKHUogkdqfTaVQ36x8Cj"><circle vector-effect="non-scaling-stroke" cx="232.5" cy="206.5" r="216.5" fill="rgb(235,235,235)"/></clipPath><g clip-path="url(#_clipPath_KcbkR51f8kw3nKHUogkdqfTaVQ36x8Cj)"><g><path d=" M 0.5 -29 L 460 -28.5 L 459.5 431 L 0 430.5 L 0.5 -29 Z " fill="rgb(234,234,234)"/><path d=" M 212.5 24 C 217.137 23.634 222.504 24.038 226 27.5 L 226 27.5 L 223.5 32 L 214.5 31 C 205.669 38.376 199.361 48.216 195.5 59 L 195.5 59 L 194 59.5 C 190.541 69.203 185.434 78.345 178.5 86 L 178.5 86 L 177 86.5 L 161.5 114 L 160 114.5 L 139.5 148 L 138 148.5 C 137.653 152.869 136.138 157.295 132.5 160 L 132.5 160 L 130 161.5 L 125 171.5 C 119.136 177.699 114.658 185.091 111.5 193 L 111.5 193 L 108 195.5 C 103.217 208.68 96.46 221.182 87.5 232 L 87.5 232 L 86 232.5 C 77.309 244.94 69.827 258.21 63.5 272 L 63.5 272 L 61 273.5 L 53.5 289 L 52 289.5 C 47.932 294.38 45.401 300.343 44 306.5 L 44 306.5 L 48.5 314 L 55 316.5 L 55.5 318 L 57 318.5 L 55 319.5 L 59 320.5 L 55.5 321 L 53.5 321 C 51.782 323.576 48.187 323.448 45.5 323 L 45.5 323 L 43.5 320 C 40.597 318.989 37.853 317.5 35.531 315.469 C 29.326 310.039 31.105 299.348 35.5 293 L 35.5 293 L 37 292.5 L 40.5 284 L 44 281.5 L 49.5 271 L 51 270.5 L 56.5 259 L 58 258.5 L 62.5 248 L 64 247.5 L 66.5 244 L 68 243.5 C 72.769 230.819 79.208 218.736 87.5 208 L 87.5 208 L 89 207.5 C 88.681 204.503 89.239 201.054 92.5 200 L 92.5 200 L 94 199.5 C 96.195 190.795 100.196 182.482 106.5 176 L 106.5 176 L 108 175.5 L 109.5 173 L 111 172.5 L 111.5 170 L 113 169.5 L 113.5 166 L 115 165.5 L 117.5 160 L 119 159.5 L 119.5 157 L 122 155.5 L 126.5 146 L 129 144.5 L 131.5 140 L 133 139.5 L 136.5 131 L 138 130.5 L 138.5 127 L 141 125.5 L 141.5 124 L 143 123.5 C 143.496 118.893 145.06 114.254 148.5 111 L 148.5 111 L 150 110.5 L 152.5 104 L 155 102.5 L 163.5 86 L 165 85.5 L 165.5 84 L 168 82.5 L 170.5 76 L 172 75.5 L 172.5 73 L 174 72.5 L 174.5 70 L 176 69.5 C 175.771 66.437 176.676 63.289 180 62.5 L 180 62.5 L 188 49.5 C 191.56 47.603 193.16 43.861 193.5 40 L 193.5 40 L 195 39.5 L 202.5 28 L 212.5 24 Z " fill="rgb(227,227,227)"/><path d=" M 230.5 24 C 233.335 23.63 236.427 24.254 237 27.5 L 237 27.5 L 238 29.5 L 235.5 28 L 234 27.5 L 233.5 26 L 231.5 27 C 230.617 25.411 229.615 26.147 229 27.5 L 229 27.5 L 225.5 33 L 225 31.5 L 230.5 24 Z " fill="rgb(45,45,45)"/><path d=" M 231.5 25 L 234 26.5 L 234.5 28 L 239 31.5 C 241.243 38.246 244.86 44.544 250 49.5 L 250 49.5 L 249.5 51 L 251 51.5 L 258 63.5 C 260.919 64.084 261.361 66.976 261 69.5 L 261 69.5 L 260.5 71 L 262 71.5 L 262.5 73 L 264 72.5 L 266 75.5 L 264.5 78 L 266.5 77 L 266.5 79 L 268 79.5 L 269.5 83 L 271 83.5 L 272 85.5 L 270.5 85 L 269 85.5 L 271.5 89 L 273.5 88 L 275 90.5 L 272 91.5 L 275 92.5 L 274.5 94 C 276.494 93.751 278.621 94.228 279 96.5 L 279 96.5 L 281 100.5 L 287 110.5 L 285 111.5 L 288 112.5 C 287.66 115.455 287.831 119.102 290.5 121 L 290.5 121 L 292 121.5 L 294.5 126 L 297 126.5 L 306 140.5 L 304 141.5 L 302 144.5 L 309.5 149 L 308 146.5 L 306.5 143 L 305 142.5 L 306.5 142 L 313 153.5 L 311 154.5 L 313 158.5 L 312 160.5 L 318 168.5 L 316 171.5 L 319 173.5 L 319.5 177 L 321 177.5 L 319 187.5 L 323 190.5 L 317 193.5 L 319 194.5 L 319.5 196 L 321.5 195 L 326.5 198 L 328.5 197 L 329 198.5 C 326.848 199.659 326.721 202.36 327 204.5 L 327 204.5 L 330 206.5 L 330.5 210 L 335.5 208 L 337.5 209 L 339.5 208 L 342.5 215 L 349 214.5 C 345.676 213.711 344.771 210.563 345 207.5 L 345 207.5 L 347 208.5 L 378 260.5 L 376 259.5 L 368.5 246 L 367 245.5 L 357.5 229 L 356.5 231 L 353 232.5 L 352.5 240 L 348.5 239 L 347 243.5 L 350 244.5 L 349.5 247 L 344.5 246 L 344 248.5 L 346 251.5 C 343.99 254.717 342.027 251.965 341 249.5 L 341 249.5 L 340.5 247 L 332.5 251 L 331 247.5 Q 333.75 245.75 329.5 244 Q 325.25 244.75 324.5 242 Q 320.25 243.75 323 245.5 L 324 248.5 L 321.5 252 L 320 251.5 L 318.5 246 L 315.5 247 L 313.5 244 L 311 245.5 C 311.249 247.494 310.772 249.621 308.5 250 L 308.5 250 L 305 250.5 L 309 252.5 L 308.5 256 C 305.484 256.397 301.757 256.398 299.5 254 L 299.5 254 L 298 257.5 L 300.5 258 L 302.5 257 L 303.5 259 L 305 259.5 L 304.5 261 L 301.5 260 L 296 262.5 L 296.5 268 C 299.629 267.864 302.902 266.979 305 264.5 L 305 264.5 L 306.5 262 L 310.5 261 L 314.5 268 L 319.5 267 C 319.377 269.919 319.932 273.211 322.5 275 L 322.5 275 L 325 269.5 L 322 267.5 L 325.5 266 L 327.5 266 L 331 268.5 C 331.452 272.681 330.577 277.268 326 278.5 L 326 278.5 L 328.5 283 L 329.5 280 L 333 281.5 L 332.5 283 L 329 284.5 L 330 289.5 C 329.128 291.68 326.355 291.412 324.5 291 L 324.5 291 L 322.5 290 C 321.147 290.615 320.411 291.617 322 292.5 L 322 292.5 L 321.5 295 C 318.725 293.811 318.256 290.685 318.5 288 L 318.5 288 L 317 287.5 L 316.5 286 L 315 286.5 L 315 288.5 L 313.5 291 L 313 288.5 L 314 286.5 L 312.5 287 L 306.5 285 L 302 287.5 L 303.5 291 L 308 291.5 L 307.5 293 L 306 292.5 C 305.495 295.25 305.197 298.916 307.5 301 L 307.5 301 L 313 298.5 L 313 296.5 L 313.5 295 L 316 295.5 C 313.8 297.3 313.373 300.329 313.5 303 L 313.5 303 L 312.5 301 C 311.341 303.152 308.64 303.279 306.5 303 L 306.5 303 L 301.5 302 L 301 303.5 L 303 304.5 L 302.5 308 L 298 307.5 L 299 303.5 L 295.5 303 C 294.374 307.31 292.098 311.293 288.5 314 L 288.5 314 L 285 312.5 C 285.295 310.085 285.037 307.116 282.5 306 L 282.5 306 L 279 307.5 L 279.5 311 L 281 311.5 L 282 313.5 L 281.5 315 L 283 315.5 L 282.5 317 L 285 317.5 L 277.5 318 L 275.5 317 L 267.5 319 L 266.5 316 L 263 317.5 L 263.5 319 L 261.5 318 C 258.875 321.579 252.983 320.036 249.5 319 L 249.5 319 L 248.5 317 L 247.5 319 L 103.5 318 L 69.5 318 C 65.554 319.128 58.829 320.743 56 316.5 L 56 316.5 L 58.5 316 L 68.5 317 L 70.5 316 L 74.5 317 L 76.5 316 C 78.633 319.081 83.574 317.849 86.5 317 L 86.5 317 L 113.5 317 L 113.5 315 L 117 314.5 L 117.5 313 L 119 315.5 L 118.5 317 L 127 316.5 L 122 315.5 L 128 314.5 L 129 312.5 L 127.5 312 L 123.5 314 L 121.5 310 C 119.056 310.444 115.825 310.386 115 307.5 L 115 307.5 L 111.5 300 L 109.5 301 L 108 298.5 L 112 296.5 L 112.5 294 L 116 292.5 L 116.5 291 L 119 290.5 L 115.5 286 C 107.614 286.986 114.289 278.394 109.5 276 L 109.5 276 L 108 275.5 L 108.5 274 L 112 275.5 L 113.5 279 C 116.113 275.852 116.342 271.39 116 267.5 L 116 267.5 L 114.5 268 C 113.341 270.152 110.64 270.279 108.5 270 L 108.5 270 L 107.5 266 L 104 275.5 L 105 278.5 L 103.5 279 L 101 275.5 L 102 273.5 L 100 269.5 L 104 267.5 L 102 258.5 L 104.5 255 L 107.5 254 L 109 254.5 L 109.5 253 L 113 250.5 L 111.5 248 L 106 245.5 L 107.5 243 L 110.5 244 L 114 243.5 C 113.318 240.87 112.528 236.6 115.5 235 L 115.5 235 L 119 234.5 C 114.375 232.518 115.088 226.454 116 222.5 L 116 222.5 L 120.5 216 C 123.202 215.692 126.418 216.095 127.5 219 L 127.5 219 L 132 215.5 L 130.5 213 L 128.5 212 L 126.5 212 L 124 210.5 L 125.5 208 L 127 207.5 C 126.543 203.756 126.811 199.085 130.5 197 L 130.5 197 L 133.5 196 L 134 197.5 L 133.5 199 L 135 198.5 C 134.588 196.645 134.32 193.872 136.5 193 L 136.5 193 L 142 190.5 L 142.5 185 L 147 187.5 L 146 190.5 L 153 193.5 L 152.5 195 L 150 196.5 C 150.322 198.109 150.404 200.365 148.5 201 L 148.5 201 L 142.5 192 L 142 195.5 L 145.5 205 L 150 206.5 L 150.5 208 L 153 208.5 L 152.5 212 L 149 214.5 L 152.5 217 L 154.5 217 L 158 217.5 L 161.5 223 L 165 221.5 Q 165.625 216.375 162.5 215 Q 157.375 215.625 156 212.5 L 157.5 210 C 158.894 212.323 162.39 211.575 164.5 211 L 164.5 211 L 165 209.5 L 164 206.5 L 167 205.5 L 165.5 202 L 163.5 205 L 161 203.5 L 160.5 201 L 155.5 204 L 155 202.5 L 157 197.5 L 154 195.5 L 155.5 193 L 157 192.5 L 158.5 187 L 160 187.5 Q 160.6 192.1 158 193.5 Q 159.75 196.75 161.5 193 L 168 191.5 L 168.5 190 L 170 193.5 L 167 198.5 L 168.5 199 L 170.5 198 C 173.088 198.597 173.35 201.285 173 203.5 L 173 203.5 L 167 207.5 L 168 213.5 L 166 213.5 L 166.5 219 L 170 216.5 L 174.5 210 C 174.871 212.595 177.194 213.256 179.5 213 L 179.5 213 L 182.5 209 L 185 209.5 L 184.5 212 L 183 212.5 L 183.5 215 L 186 214.5 L 186.5 212 L 192 209.5 L 190.5 204 L 188 205.5 L 186 201.5 L 187 199.5 L 183.5 193 L 182 192.5 L 181.5 191 L 180 190.5 L 181.5 186 L 186.5 187 L 187 185.5 L 184.5 181 L 180 179.5 L 179.5 177 L 178 176.5 L 180 172.5 L 174.5 170 L 173.5 173 L 167 176.5 L 165.5 180 L 164 179.5 L 163.5 183 L 161.5 184 L 161 180.5 L 162 178.5 L 149 177.5 L 149.5 176 L 151 175.5 L 148.5 171 L 147 171.5 L 148 177.5 L 145 178.5 L 145.5 180 L 148 181.5 L 147.5 183 C 145.891 183.322 143.635 183.404 143 181.5 L 143 181.5 L 142 176.5 L 145.5 168 L 147.5 167 L 149 167.5 L 147.5 163 L 146 162.5 L 150.5 155 L 152 154.5 L 152 152.5 L 153.5 150 L 156.5 151 L 155.5 146 L 158 145.5 L 158 143.5 L 160.5 139 L 162 138.5 L 161.5 137 L 164 136.5 L 162 135.5 L 166.5 129 L 168.5 130 L 170 127.5 L 168 126.5 L 170.5 123 L 172 123.5 L 170 124.5 L 172.5 125 C 172.467 122.039 173.488 119.066 176.5 118 L 176.5 118 L 178 117.5 L 180 114.5 L 180 112.5 L 182 108.5 L 181.5 107 L 183 106.5 L 185 102.5 L 185 100.5 L 186.5 96 L 189 95.5 L 188 93.5 L 189 93.5 L 189.5 95 L 191.5 90 L 193 89.5 L 192 86.5 C 194.871 85.504 196.262 82.905 196.5 80 L 196.5 80 L 199 79.5 L 197.5 77 L 200 76.5 L 199 74.5 L 202 72.5 C 200.067 71.34 201.513 70.137 203 69.5 L 203 69.5 L 206.5 63 L 209 61.5 L 210 59.5 L 209 57.5 L 210.5 58 L 212 57.5 L 211 55.5 L 218 46.5 L 217.5 45 L 219 45.5 L 222 39.5 L 221.5 38 L 223 37.5 L 223.5 36 L 225 35.5 L 224 33.5 L 226 32.5 L 231.5 25 Z " fill="rgb(35,35,35)"/><path d=" M 222.5 30 L 222.5 32 L 224 32.5 L 222.5 35 L 221 35.5 L 221 37.5 L 213.5 50 L 212 50.5 C 214.549 52.199 211.751 53.8 210 54.5 L 210 54.5 L 205.5 63 L 204 63.5 L 204 65.5 L 198.5 74 L 197 74.5 L 197.5 76 L 196 76.5 C 197.933 77.66 196.487 78.863 195 79.5 L 195 79.5 L 193.5 83 L 192 83.5 C 193.933 84.66 192.487 85.863 191 86.5 L 191 86.5 L 187 91.5 C 188.933 92.66 187.487 93.863 186 94.5 L 186 94.5 L 185.5 96 L 184 96.5 L 181.5 102 L 180 102.5 L 179.5 106 L 178 106.5 C 180.549 108.199 177.751 109.8 176 110.5 L 176 110.5 L 173.5 116 L 172 116.5 L 171.5 119 L 170 119.5 C 171.933 120.66 170.487 121.863 169 122.5 L 169 122.5 L 164.5 130 L 163 130.5 L 163 132.5 L 161.5 135 L 160 134.5 L 161 136.5 L 156.5 144 L 155 144.5 L 149.5 155 L 148 155.5 L 148 157.5 L 143.5 165 L 142 165.5 C 143.933 166.66 142.487 167.863 141 168.5 L 141 168.5 L 135.5 179 L 134 179.5 L 132.5 183 L 131 183.5 L 131 185.5 L 129.5 188 L 128 188.5 L 128 190.5 L 125.5 195 L 124 195.5 L 124 197.5 L 123.5 199 L 122 199.5 L 119.5 205 L 118 205.5 L 118 207.5 L 115.5 212 L 114 212.5 C 109.098 226.954 101.713 240.599 91.5 252 L 91.5 252 L 90 252.5 L 90 254.5 L 84.5 263 L 83 263.5 L 83 265.5 L 78.5 274 L 77 274.5 L 77 276.5 L 75.5 280 L 74 280.5 L 70.5 287 L 69 287.5 L 69 289.5 L 65.5 296 L 64 296.5 L 64 298.5 Q 57.788 305.787 54.5 316 Q 48.625 315.375 46 311.5 L 44 305.5 C 45.691 299.501 48.44 293.764 52.5 289 L 52.5 289 L 54 288.5 L 62.5 272 L 64 271.5 C 70.115 257.607 77.589 244.296 86.5 232 L 86.5 232 L 89 230.5 Q 88.417 219.417 96 216.5 Q 105.085 206.585 110.5 193 L 112 192.5 L 131.5 160 L 135 157.5 L 138.5 148 L 140 147.5 L 160.5 114 L 162 113.5 C 162.45 109.961 163.94 106.527 167 104.5 L 167 104.5 L 177.5 86 L 179 85.5 L 194.5 59 L 196 58.5 Q 201.911 41.411 214.5 31 Q 220.75 32.75 222.5 30 Z " fill="rgb(212,212,212)"/><path d=" M 242.5 31 L 246.5 32 L 248.5 31 L 257 36.5 C 262.838 42.719 267.318 50.104 270.5 58 L 270.5 58 L 272 58.5 L 277.5 67 L 279 67.5 L 279.5 70 L 281 70.5 L 281.5 74 L 283 74.5 L 283.5 77 L 286 78.5 C 286.231 82.986 288.103 87.253 292.5 89 L 292.5 89 L 294 89.5 L 294.5 92 L 296 92.5 L 296.5 97 L 298 97.5 L 298.5 100 L 300 100.5 L 300.5 103 L 302 103.5 C 301.707 108.904 303.04 114.741 308.5 117 L 308.5 117 L 310 117.5 L 310.5 120 L 312 120.5 L 312.5 123 L 314 123.5 L 314.5 126 L 316 126.5 L 316.5 128 L 318 128.5 L 324.5 141 L 326 141.5 L 326.5 144 L 328 144.5 C 327.72 148.506 328.51 153.079 332.5 155 L 332.5 155 L 335 156.5 L 338.5 165 L 341 165.5 L 341.5 167 L 343 167.5 L 346.5 178 L 348 178.5 L 349.5 181 L 352 182.5 L 355.5 190 L 357 190.5 L 357.5 193 L 359 193.5 L 359.5 196 L 361 196.5 L 363.5 206 L 365 206.5 L 365.5 209 L 367 209.5 L 367.5 212 L 369 212.5 L 369.5 215 L 371 215.5 L 371.5 218 L 373 218.5 L 373.5 220 L 376 221.5 L 377.5 228 L 380 229.5 L 381.5 234 L 383 234.5 L 384.5 239 L 386 239.5 L 386.5 242 L 388 242.5 L 388.5 245 L 390 245.5 L 395.5 260 L 401 262.5 L 404.5 270 L 406 270.5 C 405.556 272.944 405.614 276.175 408.5 277 L 408.5 277 L 410 277.5 L 410.5 280 L 412 280.5 L 412.5 283 L 414 283.5 L 414.5 286 L 416 286.5 L 416.5 290 L 418 290.5 C 417.751 292.494 418.228 294.621 420.5 295 L 420.5 295 L 422 295.5 L 422.5 298 L 424 298.5 L 424.5 303 L 426 303.5 L 426.5 307 L 428 307.5 C 428.363 312.217 427.541 317.018 423.254 319.629 C 420.787 321.131 415.351 321.776 413.5 319 L 413.5 319 L 411.5 320 C 409.11 318.914 411.459 314.006 410.487 311.138 C 410.156 310.163 409.674 309.268 409 308.5 L 409 308.5 L 409.5 307 L 407.5 308 L 391.5 280 L 390 279.5 C 389.424 275.471 387.587 271.652 384 269.5 L 384 269.5 L 384.5 268 L 383 267.5 L 373.5 249 L 372 249.5 L 362.5 232 L 361 231.5 L 351.5 213 L 349 211.5 L 339.5 193 L 338 192.5 L 328.5 175 L 327 174.5 C 318.39 156.156 308.243 138.52 296.5 122 L 296.5 122 L 295 121.5 L 283.5 101 L 282 100.5 L 271.5 82 L 270 81.5 L 259.5 61 L 258 60.5 L 257.5 59 L 256 58.5 C 258.549 56.801 255.751 55.2 254 54.5 L 254 54.5 L 253.5 52 L 252 51.5 L 252.5 50 L 250 48.5 C 243.39 44.805 240.9 38.289 242.5 31 L 242.5 31 Z " fill="rgb(227,227,227)"/><path d=" M 220.5 39 L 222 39.5 L 221.5 42 L 220 41.5 L 221 43.5 L 219 43.5 C 218.447 47.54 216.616 51.372 213 53.5 L 213 53.5 L 213.5 55 C 212.617 53.411 211.615 54.147 211 55.5 L 211 55.5 L 212 57.5 L 210.5 58 L 210 55.5 L 216.5 46 L 218 45.5 C 216.067 44.34 217.513 43.137 219 42.5 L 219 42.5 L 220.5 39 Z  M 196.5 78 L 199 79.5 L 196 80.5 L 195 83.5 L 195.5 85 C 194.302 83.254 192.929 83.882 192 85.5 L 192 85.5 L 196.5 78 Z  M 271.5 84 L 271.5 86 L 274 87.5 L 271.5 89 L 269 85.5 L 271.5 84 Z  M 191.5 87 L 193 87.5 L 192.5 90 L 191 90.5 L 188.5 96 L 186 95.5 L 191.5 87 Z  M 272.5 91 L 276 91.5 L 278 94.5 L 277.5 97 L 276 96.5 L 277 94.5 L 274 93.5 L 274.5 92 C 273.797 92.117 271.584 92.374 272.5 91 L 272.5 91 Z  M 185.5 97 L 185 98.5 L 184 101.5 L 184 103.5 L 183 106.5 L 183.5 108 L 181.5 107 C 182.813 108.451 181.269 109.779 180 110.5 L 180 110.5 L 179 113.5 C 180.933 114.66 179.487 115.863 178 116.5 L 178 116.5 L 177.5 118 L 173 121.5 L 172.5 125 L 169 123.5 C 171.273 121.854 173.856 119.523 174 116.5 L 174 116.5 L 174.5 115 L 176 115.5 L 175 113.5 L 177 112.5 L 177 110.5 L 181.5 104 L 183 103.5 C 182.705 101.085 182.963 98.116 185.5 97 L 185.5 97 Z  M 287.5 110 L 290 114.5 L 290 116.5 L 290.5 118 L 292 117.5 L 291.5 119 L 293 119.5 L 293.5 122 L 295 121.5 L 294.5 123 L 296 123.5 L 297 125.5 L 294.5 126 L 291.5 121 L 290 120.5 L 287.5 112 L 285 111.5 L 287.5 110 Z  M 168.5 125 L 168.5 127 L 170 127.5 L 167.5 131 L 167.5 129 L 166 128.5 L 168.5 125 Z  M 304.5 138 L 305.5 140 L 304 139.5 L 304.5 141 L 307 141.5 L 305 142.5 L 307 143.5 L 308.5 147 C 309.383 145.411 310.385 146.147 311 147.5 L 311 147.5 L 308.5 149 L 303.5 146 L 302 146.5 L 304 142.5 L 302 139.5 L 304.5 138 Z  M 313.5 153 L 316 156.5 L 315 158.5 L 318 159.5 L 317.5 161 L 319 161.5 L 317 162.5 L 319 163.5 L 320.5 167 C 321.383 165.411 322.385 166.147 323 167.5 L 323 167.5 L 322.5 169 L 324 169.5 L 324 171.5 L 324.5 174 L 326 173.5 L 326.5 177 C 327.383 175.411 328.385 176.147 329 177.5 L 329 177.5 L 328.5 179 L 331 180.5 L 330.5 182 L 332 182.5 L 331 184.5 L 332.5 187 L 334 186.5 L 333.5 188 L 336 189.5 C 334.067 190.66 335.513 191.863 337 192.5 L 337 192.5 L 337.5 195 L 339 195.5 L 338 197.5 L 340 198.5 L 340.5 200 L 342 199.5 L 341.5 201 L 344 202.5 L 343.5 204 L 345 204.5 L 344.5 206 L 346 206.5 L 345 209.5 C 345.772 210.916 347.28 212.933 349 211.5 L 349 211.5 L 348 213.5 L 348.5 215 L 342 214.5 C 342.295 212.085 342.037 209.116 339.5 208 L 339.5 208 L 336.5 209 L 334.5 209 L 330.5 210 L 328.5 205 L 327 204.5 L 329 197.5 L 327.5 197 L 325.5 197 L 320.5 195 L 319 195.5 L 318.5 194 L 317 193.5 L 323 190.5 L 319 187.5 L 321 177.5 L 319 176.5 L 318.5 173 L 316 171.5 L 318 167.5 C 314.744 165.958 312.752 162.961 312 159.5 L 312 159.5 L 313 157.5 L 311 154.5 L 313.5 153 Z  M 301.5 155 L 304 156.5 L 303.5 160 C 301.891 160.322 299.635 160.404 299 158.5 L 299 158.5 L 301.5 155 Z  M 148.5 162 L 148 163.5 L 149 167.5 L 146.5 168 L 145 168.5 L 142 176.5 L 144.5 183 L 148 182.5 L 146.5 180 L 145 179.5 L 145.5 178 L 148 177.5 L 147 171.5 L 148.5 171 L 151 175.5 L 149 176.5 L 149.5 178 L 162 178.5 L 161 183.5 L 162.5 183 L 164 182.5 L 164.5 179 C 165.383 180.589 166.385 179.853 167 178.5 L 167 178.5 L 166.5 176 L 163 173.5 L 164.5 174 L 169.5 176 L 174 172.5 L 174.5 170 L 180 172.5 L 178 176.5 L 180 177.5 L 180.5 180 L 186 182.5 L 187 186.5 L 185.5 187 L 181.5 186 L 180 190.5 L 182 191.5 L 182.5 193 L 184 193.5 L 187 200.5 C 185.067 201.66 186.513 202.863 188 203.5 L 188 203.5 L 188.5 206 L 191 204.5 L 192 209.5 L 186 212.5 L 185.5 215 L 183 214.5 L 183.5 212 L 185 211.5 L 184.5 209 L 181 210.5 L 179.5 213 C 177.194 213.256 174.871 212.595 174.5 210 L 174.5 210 L 167.5 219 L 166 218.5 L 166.5 213 L 168 213.5 L 167 207.5 L 173 203.5 C 173.35 201.285 173.088 198.597 170.5 198 L 170.5 198 L 167.5 199 L 167 197.5 L 170 191.5 L 168 190.5 L 167.5 192 C 164.547 191.602 160.843 191.846 159.5 195 L 159.5 195 L 158 192.5 C 160.25 191.886 160.337 189.409 160 187.5 L 160 187.5 L 158.5 187 L 156.5 193 L 154 194.5 L 155.5 197 L 157 197.5 L 155 203.5 L 157.5 202 L 160.5 201 L 162.5 205 L 164 204.5 L 165.5 202 L 167 205.5 L 164 206.5 L 165 210.5 L 158.5 211 C 157.617 209.411 156.615 210.147 156 211.5 L 156 211.5 L 156.5 213 L 164 216.5 L 165 221.5 L 161.5 223 L 157.5 217 L 153.5 216 L 151.5 216 L 149 214.5 L 153 211.5 L 152.5 208 L 150 207.5 L 149.5 206 L 145 204.5 L 142 192.5 L 146 195.5 L 148.5 201 L 151.5 195 L 153 194.5 L 151.5 192 C 149.645 192.412 146.872 192.68 146 190.5 L 146 190.5 L 147 187.5 L 142.5 185 L 141.5 191 L 135 194.5 L 134.5 199 L 133 198.5 L 134 196.5 L 132.5 197 L 130 197.5 C 126.977 200.058 126.35 204.262 126.5 208 L 126.5 208 L 124 209.5 L 125.5 212 L 127.5 213 L 129.5 213 L 131.5 214 L 133 213.5 L 129.5 218 L 127.5 219 C 126.086 215.204 120.881 214.99 118.41 217.66 C 115.05 221.29 115.297 226.978 116 231.5 L 116 231.5 L 118.5 235 C 116.891 234.678 114.635 234.596 114 236.5 L 114 236.5 L 113.5 244 L 109.5 243 L 107 243.5 L 106 245.5 L 112 248.5 L 113 250.5 L 109 253.5 L 108.5 255 L 106.5 254 L 104 255.5 C 101.848 256.659 101.721 259.36 102 261.5 L 102 261.5 L 104 267.5 L 100 269.5 L 102 274.5 L 102 276.5 L 103.5 279 L 105 278.5 L 104 273.5 L 107.5 266 L 108.5 270 C 113.302 270.253 118.732 269.35 121.5 265 L 121.5 265 L 124 269.5 L 122.5 269 C 121.341 266.848 118.64 266.721 116.5 267 L 116.5 267 L 113.5 279 L 111.5 275 L 108.5 274 L 108 275.5 L 111 277.5 C 110.373 280.426 110.048 284.706 113.5 286 L 113.5 286 L 116 286.5 L 119 290.5 L 116 291.5 L 115.5 293 L 112 294.5 L 111.5 297 L 108 298.5 L 109.5 301 L 111.5 300 L 117.5 310 L 122 310.5 L 123.5 314 L 128.5 312 L 128 313.5 L 127.5 315 L 122 315.5 L 127 316.5 L 118.5 317 L 118 314.5 L 117.5 313 L 116.5 315 L 113 315.5 L 113.5 317 L 86.5 317 C 83.003 317.699 78.601 318.215 75.5 316 L 75.5 316 L 71.5 317 L 69.5 316 C 68.106 318.323 64.61 317.575 62.5 317 L 62.5 317 L 58.5 316 L 56.5 316 L 55 315.5 L 55.5 314 L 57 313.5 L 56.5 312 L 58 311.5 L 57.5 310 L 59 309.5 L 61.5 303 L 63 302.5 C 61.411 301.617 62.147 300.615 63.5 300 L 63.5 300 L 65 299.5 L 66 297.5 C 64.411 296.617 65.147 295.615 66.5 295 L 66.5 295 L 68 294.5 L 67.5 293 L 69 292.5 L 68.5 291 L 70 291.5 L 71 289.5 L 70.5 288 L 72 287.5 L 71.5 286 L 73 285.5 L 75 282.5 C 73.411 281.617 74.147 280.615 75.5 280 L 75.5 280 L 77 279.5 L 76.5 278 L 79 276.5 L 78.5 275 L 80 274.5 L 79.5 273 L 81 272.5 L 80.5 271 L 82 271.5 L 85.5 262 L 88 261.5 L 87.5 260 L 89 259.5 L 88.5 258 L 90 257.5 L 89.5 256 L 91 255.5 L 91.5 253 L 93 252.5 L 92.5 251 L 94 250.5 C 92.067 249.34 93.513 248.137 95 247.5 L 95 247.5 L 95.5 246 L 97 245.5 L 96.5 244 L 98 243.5 L 102 237.5 L 102 235.5 L 105.5 229 L 107 228.5 L 106.5 227 L 108 226.5 L 108.5 224 L 111 222.5 C 109.411 221.617 110.147 220.615 111.5 220 L 111.5 220 L 113 219.5 L 113 217.5 L 113.5 216 L 115 215.5 L 114.5 214 L 116 213.5 C 113.75 212.068 115.882 210.666 117.5 210 L 117.5 210 L 119 209.5 C 118.556 207.056 118.614 203.825 121.5 203 L 121.5 203 L 123 203.5 L 122 201.5 L 125 199.5 L 124.5 198 L 126 197.5 L 126 195.5 L 126.5 194 L 128 193.5 C 126.067 192.34 127.513 191.137 129 190.5 L 129 190.5 L 129.5 189 L 131 188.5 L 133 185.5 C 131.411 184.617 132.147 183.615 133.5 183 L 133.5 183 L 135.5 184 L 136 180.5 C 134.067 179.34 135.513 178.137 137 177.5 L 137 177.5 L 140.5 171 L 142 170.5 L 142 168.5 L 144.5 165 L 147 164.5 L 145 163.5 L 148.5 162 Z " fill-rule="evenodd" fill="rgb(45,45,45)"/><path d=" M 317.5 162 L 320 163.5 L 323 168.5 L 320 166.5 L 318.5 163 L 317.5 162 Z " fill="rgb(35,35,35)"/><path d=" M 254.5 170 L 256 170.5 L 256.5 172 L 260 172.5 L 259.5 175 L 253.5 177 L 252.5 173 L 251 172.5 L 251.5 171 L 254.5 170 Z " fill="rgb(45,45,45)"/><path d=" M 155.5 179 L 158 180.5 L 156.5 187 L 153.5 188 L 155 185.5 L 155.5 179 Z  M 167.5 183 L 171 184.5 L 168.5 188 L 164 186.5 L 167 184.5 L 167.5 183 Z  M 175.5 187 L 179 189.5 L 177.5 193 L 174 190.5 L 175.5 187 Z " fill-rule="evenodd" fill="rgb(35,35,35)"/><path d=" M 186.5 192 C 189.414 192.364 190.262 194.882 190 197.5 L 190 197.5 L 188.5 198 L 186.5 192 Z " fill="rgb(45,45,45)"/><path d=" M 177.5 194 L 180 197.5 L 177 198.5 L 176.5 203 L 174 202.5 L 174.5 200 L 176 199.5 L 177.5 194 Z " fill="rgb(35,35,35)"/><path d=" M 321.5 200 L 323 200.5 C 323.627 203.426 323.952 207.706 320.5 209 L 320.5 209 L 318 207.5 L 321.5 200 Z  M 311.5 205 L 314 205.5 L 313 209.5 L 318 211.5 L 317.5 213 L 314.5 214 L 312.5 211 L 311 210.5 L 311.5 205 Z  M 278.5 212 L 282 214.5 L 283 217.5 L 281.5 217 L 280 216.5 L 278.5 212 Z  M 190.5 213 C 190.374 215.138 190.857 217.526 193 218.5 L 193 218.5 L 190.5 219 L 189 216.5 L 190.5 213 Z  M 349.5 216 L 352.5 220 L 354 219.5 L 353 221.5 L 356 222.5 L 354 222.5 L 355 224.5 L 353 223.5 L 349.5 216 Z  M 356.5 228 L 358.5 231 C 359.383 229.411 360.385 230.147 361 231.5 L 361 231.5 L 359 231.5 L 364.5 240 L 366 239.5 L 365 241.5 L 366.5 244 C 367.383 242.411 368.385 243.147 369 244.5 L 369 244.5 L 367 244.5 L 367.5 246 L 369 246.5 L 370.5 250 L 372 249.5 L 371 251.5 L 375.5 258 L 377 257.5 L 376 259.5 L 378 259.5 L 377.5 261 L 380 262.5 L 379 264.5 L 381.5 268 L 384 269.5 L 383 271.5 L 386 272.5 L 385 274.5 L 386.5 277 C 387.383 275.411 388.385 276.147 389 277.5 L 389 277.5 L 388 279.5 L 390 279.5 L 389 281.5 L 392 282.5 L 392 284.5 C 392.401 287.791 393.726 291.021 396.5 293 L 396.5 293 L 398 292.5 L 397.5 294 L 400 295.5 L 400 297.5 L 401.5 301 L 403 301.5 L 403 303.5 L 403.5 305 L 405 304.5 L 404 306.5 L 410 315.5 L 395 316.5 L 405 317.5 L 391.5 318 C 386.911 312.445 377.082 315.261 371.5 317 L 371.5 317 L 314.5 317 L 314.5 318 L 324 318.5 L 268.5 319 L 268.5 318 L 276.5 317 C 278.14 319.577 282.12 318.666 284.5 318 L 284.5 318 L 284.5 317 L 282 316.5 L 282.5 315 L 281 314.5 L 281 312.5 L 280.5 311 L 279 310.5 C 278.678 308.891 278.596 306.635 280.5 306 L 280.5 306 L 284 307.5 L 285.5 313 L 288.5 314 C 292.098 311.293 294.374 307.31 295.5 303 L 295.5 303 L 299 303.5 L 298 307.5 L 302.5 308 L 303 304.5 L 301 303.5 L 301.5 302 L 309.5 303 L 312.5 301 L 313.5 303 C 313.373 300.329 313.8 297.3 316 295.5 L 316 295.5 L 313.5 295 L 312 297.5 L 312.5 299 L 307.5 301 C 305.197 298.916 305.495 295.25 306 292.5 L 306 292.5 L 308 292.5 L 307.5 291 L 303 290.5 L 302 287.5 L 306.5 285 L 312.5 287 L 314 286.5 L 313 290.5 L 315 289.5 L 316 287.5 L 315.5 286 L 317 286.5 L 317.5 288 L 319 288.5 C 318.556 290.944 318.614 294.175 321.5 295 L 321.5 295 L 322 292.5 C 320.411 291.617 321.147 290.615 322.5 290 L 322.5 290 L 328.5 291 C 330.404 290.365 330.322 288.109 330 286.5 L 330 286.5 L 329 284.5 L 333 282.5 L 331.5 280 L 329 280.5 L 328.5 283 L 326 277.5 C 330.547 276.742 331.506 272.546 331 268.5 L 331 268.5 L 327.5 266 L 325.5 266 L 322 267.5 L 325 269.5 L 322.5 275 C 319.932 273.211 319.377 269.919 319.5 267 L 319.5 267 L 314.5 268 L 310.5 261 L 305 263.5 L 303.5 266 L 296.5 268 L 296 262.5 L 302.5 260 L 304.5 261 L 305 259.5 L 303 258.5 L 302.5 257 L 298.5 258 L 298 255.5 L 301.5 254 C 302.583 256.816 306.11 256.52 308.5 256 L 308.5 256 L 309 252.5 L 305 250.5 C 307.411 250.596 309.997 249.936 311 247.5 L 311 247.5 L 311.5 245 L 313.5 244 L 315.5 247 L 318.5 246 L 320.5 252 L 323 250.5 L 324 247.5 L 322 244.5 C 323.269 243.779 324.813 242.451 323.5 241 L 323.5 241 L 332 246.5 L 331 249.5 C 331.615 250.853 332.617 251.589 333.5 250 L 333.5 250 L 340.5 247 L 344.5 253 L 346 250.5 L 344 246.5 L 345.5 246 L 349.5 247 L 350 244.5 L 347 243.5 L 348.5 239 L 352.5 240 L 353.5 232 L 357 230.5 L 356.5 228 Z  M 126.5 232 L 129 232.5 L 129.5 235 L 132 235.5 C 131.365 237.404 129.109 237.322 127.5 237 L 127.5 237 L 125.5 236 L 124.5 238 L 121 237.5 L 122.5 235 L 126.5 232 Z  M 188.5 233 C 190.355 232.588 193.128 232.32 194 234.5 L 194 234.5 L 193.5 237 C 191.891 237.322 189.635 237.404 189 235.5 L 189 235.5 L 188.5 233 Z  M 279.5 246 L 281 249.5 L 275.5 252 L 275 250.5 L 279.5 246 Z " fill-rule="evenodd" fill="rgb(45,45,45)"/><path d=" M 314.5 248 L 317 249.5 L 316.5 255 L 314 253.5 L 312 249.5 L 314.5 248 Z " fill="rgb(35,35,35)"/><path d=" M 122.5 253 L 126 254.5 L 127 259.5 L 124.5 260 L 121.5 259 L 120 259.5 L 118.5 256 L 117 255.5 L 122.5 253 Z  M 130.5 253 L 136 256.5 L 137 258.5 L 132.5 264 C 129.732 262.172 129.62 258.451 130 255.5 L 130 255.5 L 130.5 253 Z  M 110.5 256 L 112 256.5 C 112.444 258.944 112.386 262.175 109.5 263 L 109.5 263 L 106 260.5 L 107.5 258 L 110 257.5 L 110.5 256 Z  M 113.5 257 L 116 257.5 L 116.5 260 L 119 260.5 L 118.5 265 L 115 263.5 C 112.988 261.823 112.604 259.388 113.5 257 L 113.5 257 Z " fill-rule="evenodd" fill="rgb(45,45,45)"/><path d=" M 378.5 262 L 382 267.5 L 381 267.5 L 378.5 262 Z " fill="rgb(35,35,35)"/><path d=" M 151.5 267 L 154 267.5 L 156 270.5 L 152.5 271 L 150 269.5 L 151.5 267 Z " fill="rgb(45,45,45)"/><path d=" M 382.5 269 L 398 293.5 L 395 291.5 L 382.5 269 Z " fill="rgb(35,35,35)"/><path d=" M 311.5 271 L 318 273.5 L 322 279.5 L 320 283.5 C 321.589 284.383 320.853 285.385 319.5 286 L 319.5 286 L 318.5 283 L 317 282.5 L 318 279.5 L 314 277.5 C 311.264 276.244 310.457 273.754 311.5 271 L 311.5 271 Z  M 289.5 275 L 294.5 276 L 296.5 276 L 301 276.5 L 299 277.5 L 298.5 279 L 288.5 282 L 288 280.5 L 289.5 275 Z  M 122.5 285 C 125.173 284.741 128.395 285.02 130 287.5 L 130 287.5 L 131 290.5 C 129.067 291.66 130.513 292.863 132 293.5 L 132 293.5 L 131.5 296 L 127 295.5 L 128 292.5 L 120 286.5 L 122.5 285 Z " fill-rule="evenodd" fill="rgb(45,45,45)"/><path d=" M 398.5 295 L 402 300.5 L 400 299.5 L 398.5 295 Z " fill="rgb(35,35,35)"/><path d=" M 147.5 302 C 152.374 303.798 155.013 314.503 147.5 313 L 147.5 313 L 147 311.5 L 149 306.5 L 145 305.5 L 145.5 303 L 147.5 302 Z " fill="rgb(45,45,45)"/><path d=" M 402.5 302 L 410 313.5 L 407 311.5 L 402.5 302 Z " fill="rgb(35,35,35)"/><path d=" M 137.5 309 L 140 309.5 C 140.412 311.355 140.68 314.128 138.5 315 L 138.5 315 L 133.5 314 L 131.5 315 L 131 312.5 L 137.5 309 Z  M 273.5 310 L 276 311.5 L 275.5 314 L 272.5 315 C 271.147 314.385 270.411 313.383 272 312.5 L 272 312.5 L 273.5 310 Z  M 143.5 311 L 146 311.5 C 146.322 313.109 146.404 315.365 144.5 316 L 144.5 316 L 141 314.5 L 141.5 312 L 143.5 311 Z " fill-rule="evenodd" fill="rgb(45,45,45)"/><path d=" M 391.5 316 L 390.5 318 L 314 317.5 L 370.5 317 L 385.5 317 C 387.342 317.485 390.352 318.067 391.5 316 L 391.5 316 Z  M 395.5 316 L 410 316.5 L 395.5 317 L 395.5 316 Z  M 286.5 317 L 305 317.5 L 286.5 318 L 286.5 317 Z " fill-rule="evenodd" fill="rgb(35,35,35)"/><path d=" M 63.5 318 L 95 318.5 L 63.5 319 L 63.5 318 Z " fill="rgb(118,118,118)"/><path d=" M 95.5 318 L 149 318.5 L 95.5 319 L 95.5 318 Z " fill="rgb(45,45,45)"/><path d=" M 324.5 318 L 375 318.5 L 324.5 319 L 324.5 318 Z " fill="rgb(118,118,118)"/><path d=" M 375.5 318 L 405 318.5 L 375.5 319 L 375.5 318 Z " fill="rgb(212,212,212)"/><path d=" M 62.5 319 C 76.225 322.132 90.536 322.21 104.5 321 L 104.5 321 L 107.5 320 L 107.5 321 L 105 321.5 L 114.5 322 L 114.5 320 Q 127.5 316 131.5 321 Q 135.5 316 148.5 320 L 198.5 320 L 392.5 319 L 394.5 320 C 396.14 317.423 400.12 318.334 402.5 319 L 402.5 319 L 406 320.5 L 400.5 327 L 399 326.5 L 398.5 328 L 373 327.5 L 372.5 326 L 366 326.5 L 365.5 328 L 346.5 327 L 344.5 330 L 321 330.5 L 320.5 332 L 306 331.5 L 305.5 330 L 303 330.5 L 303.5 333 L 305 333.5 L 267 334.5 L 266.5 336 C 247.163 335.138 227.715 335.544 208.5 338 L 208.5 338 L 207.5 336 C 203.667 339.833 197.476 339.711 192.5 339 L 192.5 339 L 158 340.5 L 157.5 342 C 137.397 344.991 117.165 345.97 96.861 346.111 C 88.249 346.171 76.478 347.982 69 342.5 L 69 342.5 L 68.5 341 L 65 340.5 L 64.5 339 L 62 337.5 L 61.5 336 L 60 335.5 L 59.5 334 L 57 333.5 C 56.74 329.594 57.067 325.244 59.5 322 L 59.5 322 L 62 320.5 L 62.5 319 Z " fill="rgb(227,227,227)"/><path d=" M 67.5 319 L 167 319.5 L 141.5 320 Q 133.75 317.75 131.5 321 Q 127.5 316 114.5 320 L 114.5 322 C 102.434 319.995 89.335 318.701 77.234 320.695 C 76.561 320.806 66.508 323.216 67.5 319 L 67.5 319 Z " fill="rgb(212,212,212)"/><path d=" M 167.5 319 L 252 319.5 L 167.5 320 L 167.5 319 Z " fill="rgb(118,118,118)"/><path d=" M 252.5 319 L 322 319.5 L 252.5 320 L 252.5 319 Z " fill="rgb(212,212,212)"/><path d=" M 356.5 320 L 378 320.5 L 356.5 321 L 356.5 320 Z " fill="rgb(234,234,234)"/><path d=" M 118.5 321 L 127 321.5 L 118.5 322 L 118.5 321 Z " fill="rgb(212,212,212)"/></g></g></g></svg>