<svg xmlns="http://www.w3.org/2000/svg" width="320" height="200" viewBox="0 0 320 200"><title>Far from home</title><defs><marker id="arrow-bg" viewBox="0 0 10 10" refX="8" refY="5" markerWidth="4" markerHeight="4" orient="auto-start-reverse"><path d="M0 0L10 5L0 10Z" fill="#1e2420"/></marker><marker id="arrow-panel" viewBox="0 0 10 10" refX="8" refY="5" markerWidth="4" markerHeight="4" orient="auto-start-reverse"><path d="M0 0L10 5L0 10Z" fill="#303931"/></marker><marker id="arrow-rule" viewBox="0 0 10 10" refX="8" refY="5" markerWidth="4" markerHeight="4" orient="auto-start-reverse"><path d="M0 0L10 5L0 10Z" fill="#4A544B"/></marker><marker id="arrow-text" viewBox="0 0 10 10" refX="8" refY="5" markerWidth="4" markerHeight="4" orient="auto-start-reverse"><path d="M0 0L10 5L0 10Z" fill="#E8E2D6"/></marker><marker id="arrow-gold" viewBox="0 0 10 10" refX="8" refY="5" markerWidth="4" markerHeight="4" orient="auto-start-reverse"><path d="M0 0L10 5L0 10Z" fill="#dfc288"/></marker><marker id="arrow-blue" viewBox="0 0 10 10" refX="8" refY="5" markerWidth="4" markerHeight="4" orient="auto-start-reverse"><path d="M0 0L10 5L0 10Z" fill="#8fb3c7"/></marker><marker id="arrow-sage" viewBox="0 0 10 10" refX="8" refY="5" markerWidth="4" markerHeight="4" orient="auto-start-reverse"><path d="M0 0L10 5L0 10Z" fill="#9ec79a"/></marker><marker id="arrow-coral" viewBox="0 0 10 10" refX="8" refY="5" markerWidth="4" markerHeight="4" orient="auto-start-reverse"><path d="M0 0L10 5L0 10Z" fill="#d9978c"/></marker><marker id="arrow-purple" viewBox="0 0 10 10" refX="8" refY="5" markerWidth="4" markerHeight="4" orient="auto-start-reverse"><path d="M0 0L10 5L0 10Z" fill="#b79bc4"/></marker><marker id="arrow-clay" viewBox="0 0 10 10" refX="8" refY="5" markerWidth="4" markerHeight="4" orient="auto-start-reverse"><path d="M0 0L10 5L0 10Z" fill="#cf9f78"/></marker></defs><rect width="320" height="200" fill="#1e2420"/><path d="M52 103L137 80L269 35" fill="none" stroke="#8fb3c7" stroke-width="17" stroke-linecap="round" stroke-linejoin="round" opacity=".09"/><path d="M52 103L137 80L269 35" fill="none" stroke="#8fb3c7" stroke-width="3" stroke-linecap="round" stroke-linejoin="round" opacity=".5"/><ellipse cx="97.13" cy="93.17" rx="2.8" ry="1" fill="none" stroke="#dfc288" stroke-width="1.5" transform="rotate(-15.140983835076906 97.13 93.17)" /><ellipse cx="208.92" cy="52.11" rx="2.8" ry="1" fill="none" stroke="#dfc288" stroke-width="1.5" transform="rotate(-18.82471001824007 208.92 52.11)" /><ellipse cx="202.3" cy="50.29" rx="2.8" ry="1" fill="none" stroke="#dfc288" stroke-width="1.5" transform="rotate(-18.82471001824007 202.3 50.29)" /><ellipse cx="53.63" cy="100.87" rx="2.8" ry="1" fill="none" stroke="#dfc288" stroke-width="1.5" transform="rotate(-15.140983835076906 53.63 100.87)" /><ellipse cx="118.07" cy="83.43" rx="2.8" ry="1" fill="none" stroke="#dfc288" stroke-width="1.5" transform="rotate(-15.140983835076906 118.07 83.43)" /><ellipse cx="172.61" cy="61.19" rx="2.8" ry="1" fill="none" stroke="#dfc288" stroke-width="1.5" transform="rotate(-18.82471001824007 172.61 61.19)" /><ellipse cx="156.47" cy="73.06" rx="2.8" ry="1" fill="none" stroke="#dfc288" stroke-width="1.5" transform="rotate(-18.82471001824007 156.47 73.06)" /><ellipse cx="92.4" cy="91.75" rx="2.8" ry="1" fill="none" stroke="#dfc288" stroke-width="1.5" transform="rotate(-15.140983835076906 92.4 91.75)" /><ellipse cx="67.23" cy="97.71" rx="2.8" ry="1" fill="none" stroke="#dfc288" stroke-width="1.5" transform="rotate(-15.140983835076906 67.23 97.71)" /><ellipse cx="95.01" cy="92.92" rx="2.8" ry="1" fill="none" stroke="#dfc288" stroke-width="1.5" transform="rotate(-15.140983835076906 95.01 92.92)" /><ellipse cx="228.5" cy="43.29" rx="2.8" ry="1" fill="none" stroke="#dfc288" stroke-width="1.5" transform="rotate(-18.82471001824007 228.5 43.29)" /><ellipse cx="149.16" cy="74.43" rx="2.8" ry="1" fill="none" stroke="#dfc288" stroke-width="1.5" transform="rotate(-18.82471001824007 149.16 74.43)" /><ellipse cx="61.01" cy="98.72" rx="2.8" ry="1" fill="none" stroke="#dfc288" stroke-width="1.5" transform="rotate(-15.140983835076906 61.01 98.72)" /><ellipse cx="59.06" cy="96.53" rx="2.8" ry="1" fill="none" stroke="#dfc288" stroke-width="1.5" transform="rotate(-15.140983835076906 59.06 96.53)" /><ellipse cx="173.93" cy="69.9" rx="2.8" ry="1" fill="none" stroke="#dfc288" stroke-width="1.5" transform="rotate(-18.82471001824007 173.93 69.9)" /><ellipse cx="55.94" cy="104.94" rx="2.8" ry="1" fill="none" stroke="#dfc288" stroke-width="1.5" transform="rotate(-15.140983835076906 55.94 104.94)" /><ellipse cx="139.02" cy="77.49" rx="2.8" ry="1" fill="none" stroke="#dfc288" stroke-width="1.5" transform="rotate(-18.82471001824007 139.02 77.49)" /><ellipse cx="117.67" cy="83.6" rx="2.8" ry="1" fill="none" stroke="#dfc288" stroke-width="1.5" transform="rotate(-15.140983835076906 117.67 83.6)" /><ellipse cx="176.1" cy="70.83" rx="2.8" ry="1" fill="none" stroke="#dfc288" stroke-width="1.5" transform="rotate(-18.82471001824007 176.1 70.83)" /><ellipse cx="54.7" cy="98.67" rx="2.8" ry="1" fill="none" stroke="#dfc288" stroke-width="1.5" transform="rotate(-15.140983835076906 54.7 98.67)" /><ellipse cx="115.97" cy="83.46" rx="2.8" ry="1" fill="none" stroke="#dfc288" stroke-width="1.5" transform="rotate(-15.140983835076906 115.97 83.46)" /><ellipse cx="126.34" cy="87.7" rx="2.8" ry="1" fill="none" stroke="#dfc288" stroke-width="1.5" transform="rotate(-15.140983835076906 126.34 87.7)" /><circle cx="269" cy="35" r="11" fill="#9ec79a" opacity="1"/><circle cx="269" cy="35" r="17" fill="none" stroke="#9ec79a" stroke-width="1" opacity=".4"/><circle cx="52" cy="103" r="17" fill="#303931" opacity="1"/><circle cx="52" cy="103" r="17" fill="none" stroke="#dfc288" stroke-width="3" /><circle cx="52" cy="103" r="5" fill="#dfc288" opacity="1"/></svg>
