<svg xmlns="http://www.w3.org/2000/svg" width="320" height="200" viewBox="0 0 320 200"><title>Around the wall</title><defs><marker id="arrow-bg" viewBox="0 0 10 10" refX="8" refY="5" markerWidth="4" markerHeight="4" orient="auto-start-reverse"><path d="M0 0L10 5L0 10Z" fill="#1e2420"/></marker><marker id="arrow-panel" viewBox="0 0 10 10" refX="8" refY="5" markerWidth="4" markerHeight="4" orient="auto-start-reverse"><path d="M0 0L10 5L0 10Z" fill="#303931"/></marker><marker id="arrow-rule" viewBox="0 0 10 10" refX="8" refY="5" markerWidth="4" markerHeight="4" orient="auto-start-reverse"><path d="M0 0L10 5L0 10Z" fill="#4A544B"/></marker><marker id="arrow-text" viewBox="0 0 10 10" refX="8" refY="5" markerWidth="4" markerHeight="4" orient="auto-start-reverse"><path d="M0 0L10 5L0 10Z" fill="#E8E2D6"/></marker><marker id="arrow-gold" viewBox="0 0 10 10" refX="8" refY="5" markerWidth="4" markerHeight="4" orient="auto-start-reverse"><path d="M0 0L10 5L0 10Z" fill="#dfc288"/></marker><marker id="arrow-blue" viewBox="0 0 10 10" refX="8" refY="5" markerWidth="4" markerHeight="4" orient="auto-start-reverse"><path d="M0 0L10 5L0 10Z" fill="#8fb3c7"/></marker><marker id="arrow-sage" viewBox="0 0 10 10" refX="8" refY="5" markerWidth="4" markerHeight="4" orient="auto-start-reverse"><path d="M0 0L10 5L0 10Z" fill="#9ec79a"/></marker><marker id="arrow-coral" viewBox="0 0 10 10" refX="8" refY="5" markerWidth="4" markerHeight="4" orient="auto-start-reverse"><path d="M0 0L10 5L0 10Z" fill="#d9978c"/></marker><marker id="arrow-purple" viewBox="0 0 10 10" refX="8" refY="5" markerWidth="4" markerHeight="4" orient="auto-start-reverse"><path d="M0 0L10 5L0 10Z" fill="#b79bc4"/></marker><marker id="arrow-clay" viewBox="0 0 10 10" refX="8" refY="5" markerWidth="4" markerHeight="4" orient="auto-start-reverse"><path d="M0 0L10 5L0 10Z" fill="#cf9f78"/></marker></defs><rect width="320" height="200" fill="#1e2420"/><rect x="149" y="35" width="8" height="105" rx="3" fill="#4A544B" opacity="1"/><path d="M52 103L160 160L251 41" fill="none" stroke="#8fb3c7" stroke-width="17" stroke-linecap="round" stroke-linejoin="round" opacity=".09"/><path d="M52 103L160 160L251 41" fill="none" stroke="#8fb3c7" stroke-width="3" stroke-linecap="round" stroke-linejoin="round" opacity=".5"/><ellipse cx="149.74" cy="154.48" rx="2.8" ry="1" fill="none" stroke="#dfc288" stroke-width="1.5" transform="rotate(27.82409638425326 149.74 154.48)" /><ellipse cx="90.72" cy="121.56" rx="2.8" ry="1" fill="none" stroke="#dfc288" stroke-width="1.5" transform="rotate(27.82409638425326 90.72 121.56)" /><ellipse cx="235.04" cy="57.73" rx="2.8" ry="1" fill="none" stroke="#dfc288" stroke-width="1.5" transform="rotate(-52.59464336859145 235.04 57.73)" /><ellipse cx="101.95" cy="125.45" rx="2.8" ry="1" fill="none" stroke="#dfc288" stroke-width="1.5" transform="rotate(27.82409638425326 101.95 125.45)" /><ellipse cx="243.06" cy="41.51" rx="2.8" ry="1" fill="none" stroke="#dfc288" stroke-width="1.5" transform="rotate(-52.59464336859145 243.06 41.51)" /><ellipse cx="65.65" cy="113.58" rx="2.8" ry="1" fill="none" stroke="#dfc288" stroke-width="1.5" transform="rotate(27.82409638425326 65.65 113.58)" /><ellipse cx="91.4" cy="117.56" rx="2.8" ry="1" fill="none" stroke="#dfc288" stroke-width="1.5" transform="rotate(27.82409638425326 91.4 117.56)" /><ellipse cx="174.3" cy="152.88" rx="2.8" ry="1" fill="none" stroke="#dfc288" stroke-width="1.5" transform="rotate(-52.59464336859145 174.3 152.88)" /><ellipse cx="245.52" cy="56.97" rx="2.8" ry="1" fill="none" stroke="#dfc288" stroke-width="1.5" transform="rotate(-52.59464336859145 245.52 56.97)" /><ellipse cx="183.55" cy="128.15" rx="2.8" ry="1" fill="none" stroke="#dfc288" stroke-width="1.5" transform="rotate(-52.59464336859145 183.55 128.15)" /><ellipse cx="162.76" cy="153.13" rx="2.8" ry="1" fill="none" stroke="#dfc288" stroke-width="1.5" transform="rotate(-52.59464336859145 162.76 153.13)" /><ellipse cx="57.94" cy="106.5" rx="2.8" ry="1" fill="none" stroke="#dfc288" stroke-width="1.5" transform="rotate(27.82409638425326 57.94 106.5)" /><ellipse cx="85.85" cy="120.28" rx="2.8" ry="1" fill="none" stroke="#dfc288" stroke-width="1.5" transform="rotate(27.82409638425326 85.85 120.28)" /><ellipse cx="193.87" cy="109.21" rx="2.8" ry="1" fill="none" stroke="#dfc288" stroke-width="1.5" transform="rotate(-52.59464336859145 193.87 109.21)" /><ellipse cx="65.28" cy="116.83" rx="2.8" ry="1" fill="none" stroke="#dfc288" stroke-width="1.5" transform="rotate(27.82409638425326 65.28 116.83)" /><ellipse cx="167.34" cy="153.49" rx="2.8" ry="1" fill="none" stroke="#dfc288" stroke-width="1.5" transform="rotate(-52.59464336859145 167.34 153.49)" /><ellipse cx="197.85" cy="115.21" rx="2.8" ry="1" fill="none" stroke="#dfc288" stroke-width="1.5" transform="rotate(-52.59464336859145 197.85 115.21)" /><ellipse cx="132.39" cy="138.87" rx="2.8" ry="1" fill="none" stroke="#dfc288" stroke-width="1.5" transform="rotate(27.82409638425326 132.39 138.87)" /><ellipse cx="219.91" cy="78.4" rx="2.8" ry="1" fill="none" stroke="#dfc288" stroke-width="1.5" transform="rotate(-52.59464336859145 219.91 78.4)" /><ellipse cx="127.93" cy="135.69" rx="2.8" ry="1" fill="none" stroke="#dfc288" stroke-width="1.5" transform="rotate(27.82409638425326 127.93 135.69)" /><ellipse cx="124.2" cy="145.44" rx="2.8" ry="1" fill="none" stroke="#dfc288" stroke-width="1.5" transform="rotate(27.82409638425326 124.2 145.44)" /><ellipse cx="94.37" cy="121.58" rx="2.8" ry="1" fill="none" stroke="#dfc288" stroke-width="1.5" transform="rotate(27.82409638425326 94.37 121.58)" /><circle cx="251" cy="41" r="11" fill="#9ec79a" opacity="1"/><circle cx="251" cy="41" r="17" fill="none" stroke="#9ec79a" stroke-width="1" opacity=".4"/><path d="M52 103L160 160L265 123" fill="none" stroke="#8fb3c7" stroke-width="17" stroke-linecap="round" stroke-linejoin="round" opacity=".09"/><path d="M52 103L160 160L265 123" fill="none" stroke="#8fb3c7" stroke-width="3" stroke-linecap="round" stroke-linejoin="round" opacity=".5"/><ellipse cx="72.38" cy="115.12" rx="2.8" ry="1" fill="none" stroke="#dfc288" stroke-width="1.5" transform="rotate(27.82409638425326 72.38 115.12)" /><ellipse cx="113.24" cy="138.57" rx="2.8" ry="1" fill="none" stroke="#dfc288" stroke-width="1.5" transform="rotate(27.82409638425326 113.24 138.57)" /><ellipse cx="208.61" cy="138.94" rx="2.8" ry="1" fill="none" stroke="#dfc288" stroke-width="1.5" transform="rotate(-19.411486858683578 208.61 138.94)" /><ellipse cx="199.46" cy="145.35" rx="2.8" ry="1" fill="none" stroke="#dfc288" stroke-width="1.5" transform="rotate(-19.411486858683578 199.46 145.35)" /><ellipse cx="230.1" cy="137.72" rx="2.8" ry="1" fill="none" stroke="#dfc288" stroke-width="1.5" transform="rotate(-19.411486858683578 230.1 137.72)" /><ellipse cx="64.57" cy="116.97" rx="2.8" ry="1" fill="none" stroke="#dfc288" stroke-width="1.5" transform="rotate(27.82409638425326 64.57 116.97)" /><ellipse cx="182.58" cy="147.59" rx="2.8" ry="1" fill="none" stroke="#dfc288" stroke-width="1.5" transform="rotate(-19.411486858683578 182.58 147.59)" /><ellipse cx="144.56" cy="153.4" rx="2.8" ry="1" fill="none" stroke="#dfc288" stroke-width="1.5" transform="rotate(27.82409638425326 144.56 153.4)" /><ellipse cx="61.44" cy="107.76" rx="2.8" ry="1" fill="none" stroke="#dfc288" stroke-width="1.5" transform="rotate(27.82409638425326 61.44 107.76)" /><ellipse cx="81.19" cy="115.36" rx="2.8" ry="1" fill="none" stroke="#dfc288" stroke-width="1.5" transform="rotate(27.82409638425326 81.19 115.36)" /><ellipse cx="129.07" cy="141.62" rx="2.8" ry="1" fill="none" stroke="#dfc288" stroke-width="1.5" transform="rotate(27.82409638425326 129.07 141.62)" /><ellipse cx="72.08" cy="115.66" rx="2.8" ry="1" fill="none" stroke="#dfc288" stroke-width="1.5" transform="rotate(27.82409638425326 72.08 115.66)" /><ellipse cx="75.65" cy="108.09" rx="2.8" ry="1" fill="none" stroke="#dfc288" stroke-width="1.5" transform="rotate(27.82409638425326 75.65 108.09)" /><ellipse cx="237.9" cy="128.39" rx="2.8" ry="1" fill="none" stroke="#dfc288" stroke-width="1.5" transform="rotate(-19.411486858683578 237.9 128.39)" /><ellipse cx="99.77" cy="125.94" rx="2.8" ry="1" fill="none" stroke="#dfc288" stroke-width="1.5" transform="rotate(27.82409638425326 99.77 125.94)" /><ellipse cx="77.36" cy="122.51" rx="2.8" ry="1" fill="none" stroke="#dfc288" stroke-width="1.5" transform="rotate(27.82409638425326 77.36 122.51)" /><ellipse cx="184.7" cy="146.92" rx="2.8" ry="1" fill="none" stroke="#dfc288" stroke-width="1.5" transform="rotate(-19.411486858683578 184.7 146.92)" /><ellipse cx="256.57" cy="129.32" rx="2.8" ry="1" fill="none" stroke="#dfc288" stroke-width="1.5" transform="rotate(-19.411486858683578 256.57 129.32)" /><ellipse cx="146.58" cy="146.98" rx="2.8" ry="1" fill="none" stroke="#dfc288" stroke-width="1.5" transform="rotate(27.82409638425326 146.58 146.98)" /><ellipse cx="185.08" cy="146.45" rx="2.8" ry="1" fill="none" stroke="#dfc288" stroke-width="1.5" transform="rotate(-19.411486858683578 185.08 146.45)" /><ellipse cx="207.86" cy="142.37" rx="2.8" ry="1" fill="none" stroke="#dfc288" stroke-width="1.5" transform="rotate(-19.411486858683578 207.86 142.37)" /><ellipse cx="240.29" cy="139.07" rx="2.8" ry="1" fill="none" stroke="#dfc288" stroke-width="1.5" transform="rotate(-19.411486858683578 240.29 139.07)" /><circle cx="265" cy="123" r="11" fill="#9ec79a" opacity="1"/><circle cx="265" cy="123" r="17" fill="none" stroke="#9ec79a" stroke-width="1" opacity=".4"/><path d="M52 103L160 160L213 168" fill="none" stroke="#8fb3c7" stroke-width="17" stroke-linecap="round" stroke-linejoin="round" opacity=".09"/><path d="M52 103L160 160L213 168" fill="none" stroke="#8fb3c7" stroke-width="3" stroke-linecap="round" stroke-linejoin="round" opacity=".5"/><ellipse cx="84.72" cy="118.95" rx="2.8" ry="1" fill="none" stroke="#dfc288" stroke-width="1.5" transform="rotate(27.82409638425326 84.72 118.95)" /><ellipse cx="65.07" cy="113.61" rx="2.8" ry="1" fill="none" stroke="#dfc288" stroke-width="1.5" transform="rotate(27.82409638425326 65.07 113.61)" /><ellipse cx="120.9" cy="138.45" rx="2.8" ry="1" fill="none" stroke="#dfc288" stroke-width="1.5" transform="rotate(27.82409638425326 120.9 138.45)" /><ellipse cx="150.01" cy="151.28" rx="2.8" ry="1" fill="none" stroke="#dfc288" stroke-width="1.5" transform="rotate(27.82409638425326 150.01 151.28)" /><ellipse cx="75.01" cy="114.96" rx="2.8" ry="1" fill="none" stroke="#dfc288" stroke-width="1.5" transform="rotate(27.82409638425326 75.01 114.96)" /><ellipse cx="163.64" cy="159.75" rx="2.8" ry="1" fill="none" stroke="#dfc288" stroke-width="1.5" transform="rotate(8.583621480113948 163.64 159.75)" /><ellipse cx="63.73" cy="106.95" rx="2.8" ry="1" fill="none" stroke="#dfc288" stroke-width="1.5" transform="rotate(27.82409638425326 63.73 106.95)" /><ellipse cx="159.55" cy="165.65" rx="2.8" ry="1" fill="none" stroke="#dfc288" stroke-width="1.5" transform="rotate(8.583621480113948 159.55 165.65)" /><ellipse cx="201.78" cy="164.01" rx="2.8" ry="1" fill="none" stroke="#dfc288" stroke-width="1.5" transform="rotate(8.583621480113948 201.78 164.01)" /><ellipse cx="182.44" cy="160.48" rx="2.8" ry="1" fill="none" stroke="#dfc288" stroke-width="1.5" transform="rotate(8.583621480113948 182.44 160.48)" /><ellipse cx="196.05" cy="167.35" rx="2.8" ry="1" fill="none" stroke="#dfc288" stroke-width="1.5" transform="rotate(8.583621480113948 196.05 167.35)" /><ellipse cx="185.92" cy="162.76" rx="2.8" ry="1" fill="none" stroke="#dfc288" stroke-width="1.5" transform="rotate(8.583621480113948 185.92 162.76)" /><ellipse cx="123.36" cy="137.06" rx="2.8" ry="1" fill="none" stroke="#dfc288" stroke-width="1.5" transform="rotate(27.82409638425326 123.36 137.06)" /><ellipse cx="104.63" cy="129.17" rx="2.8" ry="1" fill="none" stroke="#dfc288" stroke-width="1.5" transform="rotate(27.82409638425326 104.63 129.17)" /><ellipse cx="131.26" cy="142.97" rx="2.8" ry="1" fill="none" stroke="#dfc288" stroke-width="1.5" transform="rotate(27.82409638425326 131.26 142.97)" /><ellipse cx="81.76" cy="118.95" rx="2.8" ry="1" fill="none" stroke="#dfc288" stroke-width="1.5" transform="rotate(27.82409638425326 81.76 118.95)" /><ellipse cx="160.81" cy="161.15" rx="2.8" ry="1" fill="none" stroke="#dfc288" stroke-width="1.5" transform="rotate(8.583621480113948 160.81 161.15)" /><ellipse cx="109.23" cy="140.81" rx="2.8" ry="1" fill="none" stroke="#dfc288" stroke-width="1.5" transform="rotate(27.82409638425326 109.23 140.81)" /><ellipse cx="73.18" cy="121.53" rx="2.8" ry="1" fill="none" stroke="#dfc288" stroke-width="1.5" transform="rotate(27.82409638425326 73.18 121.53)" /><ellipse cx="135.14" cy="139.67" rx="2.8" ry="1" fill="none" stroke="#dfc288" stroke-width="1.5" transform="rotate(27.82409638425326 135.14 139.67)" /><ellipse cx="129.71" cy="151.32" rx="2.8" ry="1" fill="none" stroke="#dfc288" stroke-width="1.5" transform="rotate(27.82409638425326 129.71 151.32)" /><ellipse cx="212.28" cy="166.57" rx="2.8" ry="1" fill="none" stroke="#dfc288" stroke-width="1.5" transform="rotate(8.583621480113948 212.28 166.57)" /><circle cx="213" cy="168" r="11" fill="#9ec79a" opacity="1"/><circle cx="213" cy="168" r="17" fill="none" stroke="#9ec79a" stroke-width="1" opacity=".4"/><circle cx="52" cy="103" r="17" fill="#303931" opacity="1"/><circle cx="52" cy="103" r="17" fill="none" stroke="#dfc288" stroke-width="3" /><circle cx="52" cy="103" r="5" fill="#dfc288" opacity="1"/></svg>
