<svg xmlns="http://www.w3.org/2000/svg" width="320" height="200" viewBox="0 0 320 200"><title>Bird flocks</title><defs></defs><rect width="320" height="200" fill="#1e2420"/><g><path d="M-4 5L1 0L-4-5M-5 0L4 0" fill="none" stroke="#dfc288" stroke-width="1.7" stroke-linecap="round" transform="translate(178 100) rotate(90)"/><path d="M-4 5L1 0L-4-5M-5 0L4 0" fill="none" stroke="#9ec79a" stroke-width="1.7" stroke-linecap="round" transform="translate(178.21 103.07) rotate(103.18)"/><path d="M-4 5L1 0L-4-5M-5 0L4 0" fill="none" stroke="#9ec79a" stroke-width="1.7" stroke-linecap="round" transform="translate(177.38 106.19) rotate(116.36)"/><path d="M-4 5L1 0L-4-5M-5 0L4 0" fill="none" stroke="#9ec79a" stroke-width="1.7" stroke-linecap="round" transform="translate(175.5 109.17) rotate(129.53)"/><path d="M-4 5L1 0L-4-5M-5 0L4 0" fill="none" stroke="#9ec79a" stroke-width="1.7" stroke-linecap="round" transform="translate(172.6 111.84) rotate(142.71)"/><path d="M-4 5L1 0L-4-5M-5 0L4 0" fill="none" stroke="#9ec79a" stroke-width="1.7" stroke-linecap="round" transform="translate(168.78 114.01) rotate(155.89)"/><path d="M-4 5L1 0L-4-5M-5 0L4 0" fill="none" stroke="#9ec79a" stroke-width="1.7" stroke-linecap="round" transform="translate(164.21 115.53) rotate(169.07)"/><path d="M-4 5L1 0L-4-5M-5 0L4 0" fill="none" stroke="#dfc288" stroke-width="1.7" stroke-linecap="round" transform="translate(159.1 116.28) rotate(182.25)"/><path d="M-4 5L1 0L-4-5M-5 0L4 0" fill="none" stroke="#9ec79a" stroke-width="1.7" stroke-linecap="round" transform="translate(153.72 116.16) rotate(195.42)"/><path d="M-4 5L1 0L-4-5M-5 0L4 0" fill="none" stroke="#9ec79a" stroke-width="1.7" stroke-linecap="round" transform="translate(148.37 115.13) rotate(208.6)"/><path d="M-4 5L1 0L-4-5M-5 0L4 0" fill="none" stroke="#9ec79a" stroke-width="1.7" stroke-linecap="round" transform="translate(143.34 113.2) rotate(221.78)"/><path d="M-4 5L1 0L-4-5M-5 0L4 0" fill="none" stroke="#9ec79a" stroke-width="1.7" stroke-linecap="round" transform="translate(138.96 110.43) rotate(234.96)"/><path d="M-4 5L1 0L-4-5M-5 0L4 0" fill="none" stroke="#9ec79a" stroke-width="1.7" stroke-linecap="round" transform="translate(135.5 106.94) rotate(248.14)"/><path d="M-4 5L1 0L-4-5M-5 0L4 0" fill="none" stroke="#9ec79a" stroke-width="1.7" stroke-linecap="round" transform="translate(133.21 102.89) rotate(261.31)"/><path d="M-4 5L1 0L-4-5M-5 0L4 0" fill="none" stroke="#dfc288" stroke-width="1.7" stroke-linecap="round" transform="translate(132.29 98.47) rotate(274.49)"/><path d="M-4 5L1 0L-4-5M-5 0L4 0" fill="none" stroke="#9ec79a" stroke-width="1.7" stroke-linecap="round" transform="translate(132.84 93.91) rotate(287.67)"/><path d="M-4 5L1 0L-4-5M-5 0L4 0" fill="none" stroke="#9ec79a" stroke-width="1.7" stroke-linecap="round" transform="translate(134.93 89.48) rotate(300.85)"/><path d="M-4 5L1 0L-4-5M-5 0L4 0" fill="none" stroke="#9ec79a" stroke-width="1.7" stroke-linecap="round" transform="translate(138.5 85.41) rotate(314.03)"/><path d="M-4 5L1 0L-4-5M-5 0L4 0" fill="none" stroke="#9ec79a" stroke-width="1.7" stroke-linecap="round" transform="translate(143.43 81.96) rotate(327.2)"/><path d="M-4 5L1 0L-4-5M-5 0L4 0" fill="none" stroke="#9ec79a" stroke-width="1.7" stroke-linecap="round" transform="translate(149.49 79.34) rotate(340.38)"/><path d="M-4 5L1 0L-4-5M-5 0L4 0" fill="none" stroke="#9ec79a" stroke-width="1.7" stroke-linecap="round" transform="translate(156.41 77.74) rotate(353.56)"/><path d="M-4 5L1 0L-4-5M-5 0L4 0" fill="none" stroke="#dfc288" stroke-width="1.7" stroke-linecap="round" transform="translate(163.84 77.29) rotate(366.74)"/><path d="M-4 5L1 0L-4-5M-5 0L4 0" fill="none" stroke="#9ec79a" stroke-width="1.7" stroke-linecap="round" transform="translate(171.38 78.06) rotate(379.92)"/><path d="M-4 5L1 0L-4-5M-5 0L4 0" fill="none" stroke="#9ec79a" stroke-width="1.7" stroke-linecap="round" transform="translate(178.62 80.05) rotate(393.09)"/><path d="M-4 5L1 0L-4-5M-5 0L4 0" fill="none" stroke="#9ec79a" stroke-width="1.7" stroke-linecap="round" transform="translate(185.15 83.22) rotate(406.27)"/><path d="M-4 5L1 0L-4-5M-5 0L4 0" fill="none" stroke="#9ec79a" stroke-width="1.7" stroke-linecap="round" transform="translate(190.57 87.42) rotate(419.45)"/><path d="M-4 5L1 0L-4-5M-5 0L4 0" fill="none" stroke="#9ec79a" stroke-width="1.7" stroke-linecap="round" transform="translate(194.55 92.47) rotate(432.63)"/><path d="M-4 5L1 0L-4-5M-5 0L4 0" fill="none" stroke="#9ec79a" stroke-width="1.7" stroke-linecap="round" transform="translate(196.8 98.12) rotate(445.81)"/><path d="M-4 5L1 0L-4-5M-5 0L4 0" fill="none" stroke="#dfc288" stroke-width="1.7" stroke-linecap="round" transform="translate(197.14 104.09) rotate(458.98)"/><path d="M-4 5L1 0L-4-5M-5 0L4 0" fill="none" stroke="#9ec79a" stroke-width="1.7" stroke-linecap="round" transform="translate(195.47 110.05) rotate(472.16)"/><path d="M-4 5L1 0L-4-5M-5 0L4 0" fill="none" stroke="#9ec79a" stroke-width="1.7" stroke-linecap="round" transform="translate(191.81 115.68) rotate(485.34)"/><path d="M-4 5L1 0L-4-5M-5 0L4 0" fill="none" stroke="#9ec79a" stroke-width="1.7" stroke-linecap="round" transform="translate(186.3 120.65) rotate(498.52)"/><path d="M-4 5L1 0L-4-5M-5 0L4 0" fill="none" stroke="#9ec79a" stroke-width="1.7" stroke-linecap="round" transform="translate(179.16 124.69) rotate(511.7)"/><path d="M-4 5L1 0L-4-5M-5 0L4 0" fill="none" stroke="#9ec79a" stroke-width="1.7" stroke-linecap="round" transform="translate(170.72 127.52) rotate(524.87)"/><path d="M-4 5L1 0L-4-5M-5 0L4 0" fill="none" stroke="#9ec79a" stroke-width="1.7" stroke-linecap="round" transform="translate(161.42 128.96) rotate(538.05)"/><path d="M-4 5L1 0L-4-5M-5 0L4 0" fill="none" stroke="#dfc288" stroke-width="1.7" stroke-linecap="round" transform="translate(151.72 128.89) rotate(551.23)"/><path d="M-4 5L1 0L-4-5M-5 0L4 0" fill="none" stroke="#9ec79a" stroke-width="1.7" stroke-linecap="round" transform="translate(142.15 127.25) rotate(564.41)"/><path d="M-4 5L1 0L-4-5M-5 0L4 0" fill="none" stroke="#9ec79a" stroke-width="1.7" stroke-linecap="round" transform="translate(133.22 124.08) rotate(577.59)"/><path d="M-4 5L1 0L-4-5M-5 0L4 0" fill="none" stroke="#9ec79a" stroke-width="1.7" stroke-linecap="round" transform="translate(125.45 119.52) rotate(590.77)"/><path d="M-4 5L1 0L-4-5M-5 0L4 0" fill="none" stroke="#9ec79a" stroke-width="1.7" stroke-linecap="round" transform="translate(119.3 113.76) rotate(603.94)"/><path d="M-4 5L1 0L-4-5M-5 0L4 0" fill="none" stroke="#9ec79a" stroke-width="1.7" stroke-linecap="round" transform="translate(115.16 107.09) rotate(617.12)"/><path d="M-4 5L1 0L-4-5M-5 0L4 0" fill="none" stroke="#9ec79a" stroke-width="1.7" stroke-linecap="round" transform="translate(113.3 99.83) rotate(630.3)"/><path d="M-4 5L1 0L-4-5M-5 0L4 0" fill="none" stroke="#dfc288" stroke-width="1.7" stroke-linecap="round" transform="translate(113.91 92.37) rotate(643.48)"/><path d="M-4 5L1 0L-4-5M-5 0L4 0" fill="none" stroke="#9ec79a" stroke-width="1.7" stroke-linecap="round" transform="translate(117.01 85.1) rotate(656.66)"/><path d="M-4 5L1 0L-4-5M-5 0L4 0" fill="none" stroke="#9ec79a" stroke-width="1.7" stroke-linecap="round" transform="translate(122.53 78.43) rotate(669.83)"/><path d="M-4 5L1 0L-4-5M-5 0L4 0" fill="none" stroke="#9ec79a" stroke-width="1.7" stroke-linecap="round" transform="translate(130.22 72.72) rotate(683.01)"/><path d="M-4 5L1 0L-4-5M-5 0L4 0" fill="none" stroke="#9ec79a" stroke-width="1.7" stroke-linecap="round" transform="translate(139.73 68.33) rotate(696.19)"/><path d="M-4 5L1 0L-4-5M-5 0L4 0" fill="none" stroke="#9ec79a" stroke-width="1.7" stroke-linecap="round" transform="translate(150.61 65.51) rotate(709.37)"/><path d="M-4 5L1 0L-4-5M-5 0L4 0" fill="none" stroke="#9ec79a" stroke-width="1.7" stroke-linecap="round" transform="translate(162.29 64.48) rotate(722.55)"/><path d="M-4 5L1 0L-4-5M-5 0L4 0" fill="none" stroke="#dfc288" stroke-width="1.7" stroke-linecap="round" transform="translate(174.17 65.32) rotate(735.72)"/><path d="M-4 5L1 0L-4-5M-5 0L4 0" fill="none" stroke="#9ec79a" stroke-width="1.7" stroke-linecap="round" transform="translate(185.62 68.05) rotate(748.9)"/><path d="M-4 5L1 0L-4-5M-5 0L4 0" fill="none" stroke="#9ec79a" stroke-width="1.7" stroke-linecap="round" transform="translate(195.99 72.56) rotate(762.08)"/><path d="M-4 5L1 0L-4-5M-5 0L4 0" fill="none" stroke="#9ec79a" stroke-width="1.7" stroke-linecap="round" transform="translate(204.7 78.66) rotate(775.26)"/><path d="M-4 5L1 0L-4-5M-5 0L4 0" fill="none" stroke="#9ec79a" stroke-width="1.7" stroke-linecap="round" transform="translate(211.24 86.07) rotate(788.44)"/><path d="M-4 5L1 0L-4-5M-5 0L4 0" fill="none" stroke="#9ec79a" stroke-width="1.7" stroke-linecap="round" transform="translate(215.2 94.4) rotate(801.61)"/><path d="M-4 5L1 0L-4-5M-5 0L4 0" fill="none" stroke="#9ec79a" stroke-width="1.7" stroke-linecap="round" transform="translate(216.3 103.25) rotate(814.79)"/><path d="M-4 5L1 0L-4-5M-5 0L4 0" fill="none" stroke="#dfc288" stroke-width="1.7" stroke-linecap="round" transform="translate(214.41 112.13) rotate(827.97)"/><path d="M-4 5L1 0L-4-5M-5 0L4 0" fill="none" stroke="#9ec79a" stroke-width="1.7" stroke-linecap="round" transform="translate(209.55 120.58) rotate(841.15)"/><path d="M-4 5L1 0L-4-5M-5 0L4 0" fill="none" stroke="#9ec79a" stroke-width="1.7" stroke-linecap="round" transform="translate(201.92 128.13) rotate(854.33)"/><path d="M-4 5L1 0L-4-5M-5 0L4 0" fill="none" stroke="#9ec79a" stroke-width="1.7" stroke-linecap="round" transform="translate(191.86 134.35) rotate(867.5)"/><path d="M-4 5L1 0L-4-5M-5 0L4 0" fill="none" stroke="#9ec79a" stroke-width="1.7" stroke-linecap="round" transform="translate(179.85 138.88) rotate(880.68)"/><path d="M-4 5L1 0L-4-5M-5 0L4 0" fill="none" stroke="#9ec79a" stroke-width="1.7" stroke-linecap="round" transform="translate(166.49 141.43) rotate(893.86)"/><path d="M-4 5L1 0L-4-5M-5 0L4 0" fill="none" stroke="#9ec79a" stroke-width="1.7" stroke-linecap="round" transform="translate(152.48 141.82) rotate(907.04)"/><path d="M-4 5L1 0L-4-5M-5 0L4 0" fill="none" stroke="#dfc288" stroke-width="1.7" stroke-linecap="round" transform="translate(138.54 139.99) rotate(920.22)"/><path d="M-4 5L1 0L-4-5M-5 0L4 0" fill="none" stroke="#9ec79a" stroke-width="1.7" stroke-linecap="round" transform="translate(125.44 135.97) rotate(933.39)"/><path d="M-4 5L1 0L-4-5M-5 0L4 0" fill="none" stroke="#9ec79a" stroke-width="1.7" stroke-linecap="round" transform="translate(113.88 129.94) rotate(946.57)"/><path d="M-4 5L1 0L-4-5M-5 0L4 0" fill="none" stroke="#9ec79a" stroke-width="1.7" stroke-linecap="round" transform="translate(104.54 122.18) rotate(959.75)"/><path d="M-4 5L1 0L-4-5M-5 0L4 0" fill="none" stroke="#9ec79a" stroke-width="1.7" stroke-linecap="round" transform="translate(97.96 113.06) rotate(972.93)"/><path d="M-4 5L1 0L-4-5M-5 0L4 0" fill="none" stroke="#9ec79a" stroke-width="1.7" stroke-linecap="round" transform="translate(94.55 103.05) rotate(986.11)"/><path d="M-4 5L1 0L-4-5M-5 0L4 0" fill="none" stroke="#9ec79a" stroke-width="1.7" stroke-linecap="round" transform="translate(94.57 92.67) rotate(999.28)"/><path d="M-4 5L1 0L-4-5M-5 0L4 0" fill="none" stroke="#dfc288" stroke-width="1.7" stroke-linecap="round" transform="translate(98.08 82.46) rotate(1012.46)"/><path d="M-4 5L1 0L-4-5M-5 0L4 0" fill="none" stroke="#9ec79a" stroke-width="1.7" stroke-linecap="round" transform="translate(104.98 72.98) rotate(1025.64)"/><path d="M-4 5L1 0L-4-5M-5 0L4 0" fill="none" stroke="#9ec79a" stroke-width="1.7" stroke-linecap="round" transform="translate(114.96 64.75) rotate(1038.82)"/><path d="M-4 5L1 0L-4-5M-5 0L4 0" fill="none" stroke="#9ec79a" stroke-width="1.7" stroke-linecap="round" transform="translate(127.56 58.23) rotate(1052)"/><path d="M-4 5L1 0L-4-5M-5 0L4 0" fill="none" stroke="#9ec79a" stroke-width="1.7" stroke-linecap="round" transform="translate(142.14 53.81) rotate(1065.17)"/></g></svg>
