<svg xmlns="http://www.w3.org/2000/svg" width="320" height="200" viewBox="0 0 320 200"><title>Bubble</title><defs><marker id="arrow-gold" viewBox="0 0 10 10" refX="8" refY="5" markerWidth="4" markerHeight="4" orient="auto-start-reverse"><path d="M0 0L10 5L0 10Z" fill="#dfc288"/></marker><marker id="arrow-blue" viewBox="0 0 10 10" refX="8" refY="5" markerWidth="4" markerHeight="4" orient="auto-start-reverse"><path d="M0 0L10 5L0 10Z" fill="#8fb3c7"/></marker></defs><rect width="320" height="200" fill="#1e2420"/><g><path d="M38 158L282 158" fill="none" stroke="#4A544B" stroke-width="1" /><rect x="42" y="127" width="26" height="28" rx="3" fill="#9ec79a" opacity="1"/><rect x="84" y="85" width="26" height="70" rx="3" fill="#dfc288" opacity="1"/><rect x="126" y="113" width="26" height="42" rx="3" fill="#dfc288" opacity="1"/><rect x="168" y="141" width="26" height="14" rx="3" fill="#8fb3c7" opacity="1"/><rect x="210" y="99" width="26" height="56" rx="3" fill="#cf9f78" opacity="1"/><rect x="252" y="71" width="26" height="84" rx="3" fill="#b79bc4" opacity="1"/><path d="M97 65L107 45L136 45L148 75" fill="none" stroke="#dfc288" stroke-width="2.5" stroke-linecap="round" stroke-linejoin="round" marker-end="url(#arrow-gold)"/><path d="M148 98L135 116L106 116L99 98" fill="none" stroke="#8fb3c7" stroke-width="2.5" stroke-linecap="round" stroke-linejoin="round" marker-end="url(#arrow-blue)"/></g></svg>
