<svg xmlns="http://www.w3.org/2000/svg" width="320" height="200" viewBox="0 0 320 200"><title>Insertion</title><defs><marker id="arrow-gold" viewBox="0 0 10 10" refX="8" refY="5" markerWidth="4" markerHeight="4" orient="auto-start-reverse"><path d="M0 0L10 5L0 10Z" fill="#dfc288"/></marker></defs><rect width="320" height="200" fill="#1e2420"/><g><path d="M38 159L282 159" fill="none" stroke="#4A544B" stroke-width="1" /><rect x="42" y="142" width="26" height="14" rx="3" fill="#8fb3c7" opacity="1"/><rect x="84" y="128" width="26" height="28" rx="3" fill="#9ec79a" opacity="1"/><rect x="126" y="100" width="26" height="56" rx="3" fill="#cf9f78" opacity="1"/><rect x="168" y="86" width="26" height="70" rx="3" fill="#d9978c" opacity="1"/><rect x="210" y="114" width="26" height="42" rx="3" fill="#dfc288" opacity="1"/><rect x="252" y="72" width="26" height="84" rx="3" fill="#b79bc4" opacity="1"/><rect x="36" y="166" width="158" height="5" rx="3" fill="#9ec79a" opacity="1"/><path d="M223 91L223 39L149 39L149 86" fill="none" stroke="#dfc288" stroke-width="2.5" stroke-linecap="round" stroke-linejoin="round" marker-end="url(#arrow-gold)"/><path d="M146 94L146 158" fill="none" stroke="#dfc288" stroke-width="2" stroke-dasharray="4 4"/></g></svg>
