<svg xmlns="http://www.w3.org/2000/svg" width="320" height="200" viewBox="0 0 320 200"><title>Lotus</title><defs></defs><rect width="320" height="200" fill="#1e2420"/><g><path d="M160 125Q75 -4 127 91Q228 65 160 125" fill="#8fb3c7" fill-opacity=".1" stroke="#8fb3c7" stroke-width="1.5"/><path d="M160 125Q81 0 133 83Q224 68 160 125" fill="#8fb3c7" fill-opacity=".1" stroke="#8fb3c7" stroke-width="1.5"/><path d="M160 125Q87 4 139 75Q220 71 160 125" fill="#8fb3c7" fill-opacity=".1" stroke="#8fb3c7" stroke-width="1.5"/><path d="M160 125Q93 8 145 67Q216 74 160 125" fill="#8fb3c7" fill-opacity=".1" stroke="#8fb3c7" stroke-width="1.5"/><path d="M160 125Q99 12 151 59Q212 77 160 125" fill="#9ec79a" fill-opacity=".1" stroke="#9ec79a" stroke-width="1.5"/><path d="M160 125Q105 16 157 51Q208 80 160 125" fill="#9ec79a" fill-opacity=".1" stroke="#9ec79a" stroke-width="1.5"/><path d="M160 125Q111 20 163 43Q204 83 160 125" fill="#9ec79a" fill-opacity=".1" stroke="#9ec79a" stroke-width="1.5"/><path d="M160 125Q117 24 169 51Q200 86 160 125" fill="#9ec79a" fill-opacity=".1" stroke="#9ec79a" stroke-width="1.5"/><path d="M160 125Q123 28 175 59Q196 89 160 125" fill="#dfc288" fill-opacity=".1" stroke="#dfc288" stroke-width="1.5"/><path d="M160 125Q129 32 181 67Q192 92 160 125" fill="#dfc288" fill-opacity=".1" stroke="#dfc288" stroke-width="1.5"/><path d="M160 125Q135 36 187 75Q188 95 160 125" fill="#dfc288" fill-opacity=".1" stroke="#dfc288" stroke-width="1.5"/><path d="M160 125Q141 40 193 83Q184 98 160 125" fill="#dfc288" fill-opacity=".1" stroke="#dfc288" stroke-width="1.5"/><ellipse cx="160" cy="144" rx="68" ry="14" fill="none" stroke="#9ec79a" stroke-width="1.5" transform="rotate(0 160 144)" /><circle cx="160" cy="119" r="5" fill="#dfc288" opacity="1"/></g></svg>
