<svg xmlns="http://www.w3.org/2000/svg" width="320" height="200" viewBox="0 0 320 200"><title>Random stars</title><defs></defs><rect width="320" height="200" fill="#1e2420"/><g><circle cx="179.73" cy="66.36" r="1.9008779358118773" fill="#8fb3c7" opacity="0.950016882934142"/><circle cx="260.82" cy="158.21" r="3.0539620891213417" fill="#9ec79a" opacity="0.7850959279225208"/><circle cx="186.44" cy="118.39" r="3.483530404046178" fill="#dfc288" opacity="0.5649310002219864"/><circle cx="149.27" cy="164.41" r="3.258574064821005" fill="#8fb3c7" opacity="0.716030085424427"/><circle cx="54.15" cy="107.88" r="2.401735683903098" fill="#9ec79a" opacity="0.46688080626772716"/><circle cx="149.71" cy="140.91" r="1.8459743410348892" fill="#dfc288" opacity="0.8383404372842052"/><circle cx="97.24" cy="35.77" r="3.494746247306466" fill="#8fb3c7" opacity="0.85409427882405"/><circle cx="249.8" cy="148.13" r="1.791951034218073" fill="#9ec79a" opacity="0.5235261404537596"/><circle cx="137.48" cy="106.88" r="1.70789366774261" fill="#dfc288" opacity="0.6368446837295778"/><circle cx="209.71" cy="43.88" r="2.547511987388134" fill="#8fb3c7" opacity="0.5498093743459321"/><circle cx="88.7" cy="169.55" r="3.487119870260358" fill="#9ec79a" opacity="0.7728997936588713"/><circle cx="54.69" cy="82.77" r="3.2459160201251507" fill="#dfc288" opacity="0.8172720595845022"/><circle cx="223.26" cy="165.88" r="2.798508381471038" fill="#8fb3c7" opacity="0.48734610687242824"/><circle cx="249.36" cy="62.31" r="2.534704178571701" fill="#9ec79a" opacity="0.8473675767541864"/><circle cx="48.19" cy="52.65" r="1.7728155795484781" fill="#dfc288" opacity="0.6767880659666844"/><circle cx="213.77" cy="95.62" r="3.0327309854328632" fill="#8fb3c7" opacity="0.866807485150639"/><circle cx="79.14" cy="116.84" r="1.9750019442290068" fill="#9ec79a" opacity="0.7479222766240128"/><circle cx="273.21" cy="84.76" r="2.4121956899762154" fill="#dfc288" opacity="0.725823241530452"/><circle cx="80.06" cy="145.74" r="2.298763306811452" fill="#8fb3c7" opacity="0.990486726362724"/><circle cx="73.77" cy="50.65" r="3.1056735180318356" fill="#9ec79a" opacity="0.5008029188611545"/><circle cx="200.62" cy="69.79" r="3.4860621001571417" fill="#dfc288" opacity="0.5845850032870659"/><circle cx="163.62" cy="87.73" r="2.638146921992302" fill="#8fb3c7" opacity="0.5813029250712134"/><circle cx="187.38" cy="75.88" r="3.271658608689904" fill="#9ec79a" opacity="0.5923855148372241"/><circle cx="40.09" cy="97.09" r="2.5840368308126926" fill="#dfc288" opacity="0.6914347218000331"/><circle cx="152.76" cy="37.45" r="2.1526422183960676" fill="#8fb3c7" opacity="0.9341957065393218"/><circle cx="166.46" cy="68.36" r="2.149233900010586" fill="#9ec79a" opacity="0.595626543147955"/><circle cx="221.67" cy="109.11" r="1.78296266682446" fill="#dfc288" opacity="0.6989112807554193"/><circle cx="186.53" cy="140.12" r="2.3781297616660595" fill="#8fb3c7" opacity="0.838760114426259"/><circle cx="127.99" cy="175.88" r="1.9929612930864096" fill="#9ec79a" opacity="0.6888404154335149"/><circle cx="36.88" cy="131" r="2.985648274421692" fill="#dfc288" opacity="0.7706823709071614"/><circle cx="100.69" cy="159.14" r="2.4339022878557444" fill="#8fb3c7" opacity="0.498902982857544"/><circle cx="205.01" cy="81.42" r="1.8142767734825611" fill="#9ec79a" opacity="0.4550921765738167"/><circle cx="91.81" cy="101.09" r="2.8475039433687925" fill="#dfc288" opacity="0.5802047683973797"/><circle cx="61.06" cy="111.86" r="2.9160973206162453" fill="#8fb3c7" opacity="0.9628020428703168"/><circle cx="26.12" cy="27.93" r="1.9604699034243822" fill="#9ec79a" opacity="0.4879866892588325"/><circle cx="159.4" cy="59.88" r="3.2598179541528225" fill="#dfc288" opacity="0.8493748474516907"/><circle cx="268.56" cy="53.63" r="3.0040204133838415" fill="#8fb3c7" opacity="0.4639490132336505"/><circle cx="201.95" cy="127.63" r="2.062803938984871" fill="#9ec79a" opacity="0.9171355529339054"/><circle cx="165.4" cy="108.31" r="1.8584235701709986" fill="#dfc288" opacity="0.8529505774495192"/><circle cx="167.2" cy="76.14" r="2.7481090165674686" fill="#8fb3c7" opacity="0.761557925643865"/><circle cx="287.19" cy="61.28" r="1.8225265722721815" fill="#9ec79a" opacity="0.45408300712006167"/><circle cx="49.03" cy="46.1" r="1.5265066549181938" fill="#dfc288" opacity="0.8520262543694117"/><circle cx="65.42" cy="84.64" r="3.0082869697362185" fill="#8fb3c7" opacity="0.9561199342948385"/><circle cx="81.29" cy="79.3" r="2.6035212986171246" fill="#9ec79a" opacity="0.7969720691093244"/><circle cx="202.96" cy="25.62" r="2.3603039141744375" fill="#dfc288" opacity="0.9573412166093476"/><circle cx="108.06" cy="34.78" r="2.011459618806839" fill="#8fb3c7" opacity="0.9433858598233201"/><circle cx="210.27" cy="97.41" r="2.300349408760667" fill="#9ec79a" opacity="0.46973215603502466"/><circle cx="243.74" cy="53.46" r="2.0664417631924152" fill="#dfc288" opacity="0.710703795182053"/><circle cx="179.25" cy="116.71" r="1.9968995582312346" fill="#8fb3c7" opacity="0.5075577176292427"/><circle cx="142.84" cy="31.54" r="2.4504326060414314" fill="#9ec79a" opacity="0.809069441317115"/><circle cx="95.02" cy="59.86" r="3.2596658188849688" fill="#dfc288" opacity="0.5103117482853122"/><circle cx="95.51" cy="104.41" r="1.9182729981839657" fill="#8fb3c7" opacity="0.5419704805710354"/><circle cx="169.26" cy="89.63" r="3.0591262485831976" fill="#9ec79a" opacity="0.7500411954824813"/><circle cx="196.91" cy="139.25" r="2.629711017012596" fill="#dfc288" opacity="0.6432504302472808"/><circle cx="51.46" cy="52.62" r="2.671056756749749" fill="#8fb3c7" opacity="0.9230453260359355"/><circle cx="270.2" cy="84.22" r="3.106433216482401" fill="#9ec79a" opacity="0.6484953613602557"/><circle cx="133.79" cy="141.21" r="3.4460623543709517" fill="#dfc288" opacity="0.9759499448467979"/><circle cx="275.38" cy="96.34" r="1.814095877110958" fill="#8fb3c7" opacity="0.7007956173853018"/><circle cx="125.83" cy="102.32" r="3.204108403995633" fill="#9ec79a" opacity="0.8661566136521288"/><circle cx="131.82" cy="139.89" r="3.369356255978346" fill="#dfc288" opacity="0.6408825330086985"/><circle cx="258.96" cy="72.58" r="3.2540518697351217" fill="#8fb3c7" opacity="0.9066668697749265"/><circle cx="26.61" cy="133.52" r="3.3719038367271423" fill="#9ec79a" opacity="0.7816401528776624"/><circle cx="28.59" cy="114.26" r="2.0381725672632456" fill="#dfc288" opacity="0.4952814448741265"/><circle cx="136.55" cy="29.94" r="1.8614915795624256" fill="#8fb3c7" opacity="0.516991950350348"/><circle cx="102.01" cy="145.8" r="3.401704413816333" fill="#9ec79a" opacity="0.7281744836946018"/><circle cx="32" cy="136.3" r="3.399967171251774" fill="#dfc288" opacity="0.8151625462458469"/><circle cx="156.16" cy="112.95" r="3.4873666781932116" fill="#8fb3c7" opacity="0.9978427628171631"/><circle cx="174.43" cy="135.08" r="1.7783042751252651" fill="#9ec79a" opacity="0.6963144275941886"/><circle cx="149" cy="92.53" r="2.25489523075521" fill="#dfc288" opacity="0.5754299094085582"/><circle cx="147.72" cy="39.71" r="3.3486337810754776" fill="#8fb3c7" opacity="0.8945596663863399"/><circle cx="200.7" cy="174.83" r="1.625573793426156" fill="#9ec79a" opacity="0.7774256199714729"/><circle cx="55.2" cy="158.78" r="2.9812750555574894" fill="#dfc288" opacity="0.954346638324205"/><circle cx="156.59" cy="124.62" r="2.251765189692378" fill="#8fb3c7" opacity="0.5667398790945299"/><circle cx="258.47" cy="68.86" r="2.6467671915888786" fill="#9ec79a" opacity="0.7612217415706255"/><circle cx="171.8" cy="52.81" r="2.911442594602704" fill="#dfc288" opacity="0.9881521782022902"/><circle cx="261.97" cy="137.96" r="2.6229002587497234" fill="#8fb3c7" opacity="0.456966115499381"/><circle cx="173.76" cy="96.72" r="2.527720784768462" fill="#9ec79a" opacity="0.8381357343052515"/><circle cx="227.23" cy="55.61" r="3.326746553182602" fill="#dfc288" opacity="0.9391073594451882"/><circle cx="78.29" cy="32.97" r="2.8133873883634806" fill="#8fb3c7" opacity="0.6190567087498493"/><circle cx="293.01" cy="67.57" r="1.7716918475925922" fill="#9ec79a" opacity="0.5448062514537014"/><circle cx="223.61" cy="54.97" r="1.5404341351240873" fill="#dfc288" opacity="0.477748425968457"/><circle cx="113.01" cy="141.15" r="2.6494666412472725" fill="#8fb3c7" opacity="0.5691184670315125"/><circle cx="145.95" cy="97.12" r="2.4345881063491106" fill="#9ec79a" opacity="0.9284605922293849"/><circle cx="219.5" cy="141.2" r="2.037177409976721" fill="#dfc288" opacity="0.9176312978961505"/><circle cx="253.05" cy="169.55" r="1.6948429848998785" fill="#8fb3c7" opacity="0.8601835143868812"/><circle cx="120.59" cy="92.66" r="1.7293378561735153" fill="#9ec79a" opacity="0.7434753707260825"/><circle cx="231.29" cy="163.49" r="3.137990305200219" fill="#dfc288" opacity="0.5283473186311312"/><circle cx="99.28" cy="67.77" r="2.194900158792734" fill="#8fb3c7" opacity="0.7687113659107127"/><circle cx="82.61" cy="51.33" r="1.9681507032364607" fill="#9ec79a" opacity="0.7308961692382582"/><circle cx="282.28" cy="159.92" r="2.1592862233519554" fill="#dfc288" opacity="0.6900917363003828"/><circle cx="39.26" cy="173.27" r="3.171305166557431" fill="#8fb3c7" opacity="0.9187374873203226"/><circle cx="194.56" cy="82.09" r="2.8114189319312572" fill="#9ec79a" opacity="0.4691974259563722"/><circle cx="160.14" cy="70.54" r="2.534826284274459" fill="#dfc288" opacity="0.6405661695753224"/><circle cx="139.66" cy="83.94" r="2.6357533931732178" fill="#8fb3c7" opacity="0.5569495889008976"/><circle cx="145.04" cy="23.34" r="2.292009497061372" fill="#9ec79a" opacity="0.47206380703719336"/><circle cx="117.73" cy="107.52" r="2.869308192282915" fill="#dfc288" opacity="0.5024963078671135"/><circle cx="170.57" cy="57.33" r="3.391604347154498" fill="#8fb3c7" opacity="0.7794729038258084"/><circle cx="33.35" cy="107.6" r="1.5836966410279274" fill="#9ec79a" opacity="0.8964743130491115"/><circle cx="67.79" cy="114.79" r="2.392345728352666" fill="#dfc288" opacity="0.517546095896978"/><circle cx="121.07" cy="150.6" r="2.3921580277383327" fill="#8fb3c7" opacity="0.9486457008519211"/><circle cx="57.7" cy="158.41" r="2.9824851360172033" fill="#9ec79a" opacity="0.4618703697924502"/><circle cx="248.74" cy="138.22" r="1.7815888673067093" fill="#dfc288" opacity="0.4999096526415088"/><circle cx="96.36" cy="53.64" r="2.1243219170719385" fill="#8fb3c7" opacity="0.9755662813899109"/><circle cx="242.53" cy="79.62" r="3.069574151188135" fill="#9ec79a" opacity="0.968689153494779"/><circle cx="241.89" cy="153.72" r="2.8237345200031996" fill="#dfc288" opacity="0.9103621746529825"/><circle cx="161.75" cy="142.26" r="2.9864185974001884" fill="#8fb3c7" opacity="0.8316927109495738"/><circle cx="167.08" cy="123.38" r="1.5247117448598146" fill="#9ec79a" opacity="0.9420434003812261"/><circle cx="255.44" cy="173.34" r="2.8821779005229473" fill="#dfc288" opacity="0.489051073754672"/><circle cx="229.86" cy="159.01" r="2.128883993253112" fill="#8fb3c7" opacity="0.8902765349601396"/><circle cx="64.59" cy="77.9" r="2.55868998169899" fill="#9ec79a" opacity="0.5638289506197908"/><circle cx="81.48" cy="139.65" r="2.6400545183569193" fill="#dfc288" opacity="0.9228085991111584"/><circle cx="154.29" cy="129.51" r="2.7266062386333942" fill="#8fb3c7" opacity="0.7859117289655841"/><circle cx="172.42" cy="96.46" r="2.433730674907565" fill="#9ec79a" opacity="0.5940412766416557"/><circle cx="43.46" cy="135.65" r="2.0874227955937386" fill="#dfc288" opacity="0.5602671936736442"/><circle cx="260.08" cy="152.87" r="2.1516551692038774" fill="#8fb3c7" opacity="0.6679801331949421"/><circle cx="104.47" cy="75.59" r="3.040511753410101" fill="#9ec79a" opacity="0.6695822458365002"/><circle cx="278.21" cy="89.35" r="2.2213373091071844" fill="#dfc288" opacity="0.5755588350002654"/><circle cx="196.38" cy="55.03" r="2.0151524394750595" fill="#8fb3c7" opacity="0.6112746215076186"/><circle cx="84.08" cy="72.82" r="2.000584254041314" fill="#9ec79a" opacity="0.8563383676228113"/><circle cx="124.04" cy="39.3" r="2.4275626577436924" fill="#dfc288" opacity="0.9188796104514041"/><circle cx="227.45" cy="86.64" r="1.5470322649925947" fill="#8fb3c7" opacity="0.684581254713703"/><circle cx="46.87" cy="135.16" r="2.2629299387335777" fill="#9ec79a" opacity="0.5678117748931982"/><circle cx="257.18" cy="63.29" r="2.0126779545098543" fill="#dfc288" opacity="0.9297007767600007"/><circle cx="33.44" cy="35.29" r="2.2824427895247936" fill="#8fb3c7" opacity="0.46550166826928036"/><circle cx="193.73" cy="103.61" r="2.663409536704421" fill="#9ec79a" opacity="0.6510851898347028"/><circle cx="101.75" cy="89.36" r="2.855321943759918" fill="#dfc288" opacity="0.9259075539768674"/><circle cx="75.27" cy="166.71" r="2.523538077250123" fill="#8fb3c7" opacity="0.7772969443467446"/><circle cx="209.28" cy="151.74" r="3.4158516116440296" fill="#9ec79a" opacity="0.8284021241241135"/><circle cx="257.7" cy="154.49" r="2.6453287433832884" fill="#dfc288" opacity="0.6696469037909992"/><circle cx="192.83" cy="55.83" r="2.545410729944706" fill="#8fb3c7" opacity="0.6610342182801106"/><circle cx="56.22" cy="82.78" r="3.0035320539027452" fill="#9ec79a" opacity="0.7701435634982772"/><circle cx="194.05" cy="175.01" r="2.6795042119920254" fill="#dfc288" opacity="0.6481655422248878"/><circle cx="88.86" cy="31.1" r="2.0149151291698217" fill="#8fb3c7" opacity="0.8838172693853267"/><circle cx="230.73" cy="68.24" r="3.439794197678566" fill="#9ec79a" opacity="0.5624823866994121"/><circle cx="281.6" cy="25.07" r="2.682792941108346" fill="#dfc288" opacity="0.6954194367048331"/><circle cx="253.91" cy="138.24" r="1.591131303459406" fill="#8fb3c7" opacity="0.6713823461555877"/><circle cx="235.32" cy="159.43" r="3.366559563204646" fill="#9ec79a" opacity="0.8704967687954195"/><circle cx="154.6" cy="142.36" r="1.6235858723521233" fill="#dfc288" opacity="0.5177360375062563"/><circle cx="78.46" cy="37.67" r="3.1762194205075502" fill="#8fb3c7" opacity="0.8908404758316465"/><circle cx="256.42" cy="100" r="2.959479223936796" fill="#9ec79a" opacity="0.48502381887519735"/><circle cx="197.5" cy="146.31" r="1.9919185396283865" fill="#dfc288" opacity="0.7743104935740122"/><circle cx="149.84" cy="54.71" r="1.7854149043560028" fill="#8fb3c7" opacity="0.6468475083471277"/><circle cx="113.06" cy="81.8" r="3.108475798740983" fill="#9ec79a" opacity="0.6290347021189518"/><circle cx="156.29" cy="76.89" r="1.5093099363148212" fill="#dfc288" opacity="0.7508171027177013"/><circle cx="253.92" cy="98.01" r="2.504914177581668" fill="#8fb3c7" opacity="0.7919831446488388"/><circle cx="61.9" cy="45.13" r="1.8424260690808296" fill="#9ec79a" opacity="0.7868124962435104"/><circle cx="196.62" cy="122.43" r="2.7389920074492693" fill="#dfc288" opacity="0.9019172461819835"/><circle cx="213.13" cy="130.17" r="2.506401028484106" fill="#8fb3c7" opacity="0.48962019939208407"/><circle cx="70.94" cy="90.88" r="3.4667342212051153" fill="#9ec79a" opacity="0.656714032322634"/><circle cx="150.01" cy="133.46" r="1.5652797669172287" fill="#dfc288" opacity="0.525945057591889"/><circle cx="39.07" cy="60.94" r="2.586963603273034" fill="#8fb3c7" opacity="0.6050653480109759"/><circle cx="137.21" cy="144.4" r="2.3825457133352757" fill="#9ec79a" opacity="0.9657969699823299"/><circle cx="260.52" cy="103.95" r="2.0108320396393538" fill="#dfc288" opacity="0.7725520762731322"/><circle cx="232.89" cy="52.14" r="3.203152023255825" fill="#8fb3c7" opacity="0.888252608163748"/><circle cx="270.83" cy="129.69" r="2.0563517678529024" fill="#9ec79a" opacity="0.9720933569711634"/><circle cx="111.2" cy="68.06" r="3.360552828758955" fill="#dfc288" opacity="0.7715921349474228"/><circle cx="185.95" cy="105.6" r="2.467926627025008" fill="#8fb3c7" opacity="0.5987708055530675"/><circle cx="174.59" cy="102.84" r="2.1087344884872437" fill="#9ec79a" opacity="0.5178109231055714"/><circle cx="248.5" cy="54.7" r="2.0608833078294992" fill="#dfc288" opacity="0.6590277318027802"/><circle cx="203.91" cy="154.16" r="2.079246837645769" fill="#8fb3c7" opacity="0.8115062741213479"/><circle cx="55.61" cy="140.13" r="2.9910026025027037" fill="#9ec79a" opacity="0.8842433585901746"/><circle cx="102.16" cy="165.07" r="3.3632344380021095" fill="#dfc288" opacity="0.663139136938844"/><circle cx="148.67" cy="66.24" r="1.6490506548434496" fill="#8fb3c7" opacity="0.7286820406210609"/><circle cx="52.07" cy="122.89" r="2.218467827886343" fill="#9ec79a" opacity="0.4866708267130889"/><circle cx="68.72" cy="106.42" r="2.180310210213065" fill="#dfc288" opacity="0.9518174831871875"/><circle cx="87.42" cy="90.84" r="2.4013747721910477" fill="#8fb3c7" opacity="0.8115747435600498"/><circle cx="113.64" cy="61.46" r="2.6291118655353785" fill="#9ec79a" opacity="0.8350319609162398"/><circle cx="150.05" cy="172.22" r="3.1240715123713017" fill="#dfc288" opacity="0.47922309130663054"/><circle cx="97.09" cy="152.56" r="1.7083653192967176" fill="#8fb3c7" opacity="0.932690536521841"/><circle cx="96.72" cy="99.25" r="1.636394016444683" fill="#9ec79a" opacity="0.9236485962406733"/></g></svg>
