<svg xmlns="http://www.w3.org/2000/svg" width="320" height="200" viewBox="0 0 320 200"><title>Recaman</title><defs></defs><rect width="320" height="200" fill="#1e2420"/><g><path d="M29 100L291 100" fill="none" stroke="#4A544B" stroke-width="1" /><path d="M29 100A2.09 1.5 0 0 1 33.17 100" fill="none" stroke="#9ec79a" stroke-width="1.8"/><path d="M33.17 100A4.17 3.01 0 0 0 41.52 100" fill="none" stroke="#dfc288" stroke-width="1.8"/><path d="M41.52 100A6.26 4.51 0 0 1 54.05 100" fill="none" stroke="#8fb3c7" stroke-width="1.8"/><path d="M54.05 100A8.35 6.01 0 0 0 37.35 100" fill="none" stroke="#9ec79a" stroke-width="1.8"/><path d="M37.35 100A10.44 7.51 0 0 1 58.22 100" fill="none" stroke="#dfc288" stroke-width="1.8"/><path d="M58.22 100A12.52 9.02 0 0 0 83.27 100" fill="none" stroke="#8fb3c7" stroke-width="1.8"/><path d="M83.27 100A14.61 10.52 0 0 1 112.49 100" fill="none" stroke="#9ec79a" stroke-width="1.8"/><path d="M112.49 100A16.7 12.02 0 0 0 79.1 100" fill="none" stroke="#dfc288" stroke-width="1.8"/><path d="M79.1 100A18.79 13.53 0 0 1 116.67 100" fill="none" stroke="#8fb3c7" stroke-width="1.8"/><path d="M116.67 100A20.87 15.03 0 0 0 74.92 100" fill="none" stroke="#9ec79a" stroke-width="1.8"/><path d="M74.92 100A22.96 16.53 0 0 1 120.84 100" fill="none" stroke="#dfc288" stroke-width="1.8"/><path d="M120.84 100A25.05 18.03 0 0 0 70.75 100" fill="none" stroke="#8fb3c7" stroke-width="1.8"/><path d="M70.75 100A27.13 19.54 0 0 1 125.02 100" fill="none" stroke="#9ec79a" stroke-width="1.8"/><path d="M125.02 100A29.22 21.04 0 0 0 66.57 100" fill="none" stroke="#dfc288" stroke-width="1.8"/><path d="M66.57 100A31.31 22.54 0 0 1 129.19 100" fill="none" stroke="#8fb3c7" stroke-width="1.8"/><path d="M129.19 100A33.4 24.05 0 0 0 62.4 100" fill="none" stroke="#9ec79a" stroke-width="1.8"/><path d="M62.4 100A35.48 25.55 0 0 1 133.37 100" fill="none" stroke="#dfc288" stroke-width="1.8"/><path d="M133.37 100A37.57 27.05 0 0 0 208.51 100" fill="none" stroke="#8fb3c7" stroke-width="1.8"/><path d="M208.51 100A39.66 28.55 0 0 1 287.83 100" fill="none" stroke="#9ec79a" stroke-width="1.8"/><path d="M287.83 100A41.75 30.06 0 0 0 204.33 100" fill="none" stroke="#dfc288" stroke-width="1.8"/><path d="M204.33 100A43.83 31.56 0 0 1 292 100" fill="none" stroke="#8fb3c7" stroke-width="1.8"/><path d="M292 100A45.92 33.06 0 0 0 200.16 100" fill="none" stroke="#9ec79a" stroke-width="1.8"/><path d="M200.16 100A48.01 34.57 0 0 1 104.14 100" fill="none" stroke="#dfc288" stroke-width="1.8"/><path d="M104.14 100A50.1 36.07 0 0 0 204.33 100" fill="none" stroke="#8fb3c7" stroke-width="1.8"/><path d="M204.33 100A52.18 37.57 0 0 1 99.97 100" fill="none" stroke="#9ec79a" stroke-width="1.8"/><path d="M99.97 100A54.27 39.07 0 0 0 208.51 100" fill="none" stroke="#dfc288" stroke-width="1.8"/></g></svg>
