<svg xmlns="http://www.w3.org/2000/svg" width="576" height="507.001" viewBox="0 0 152.4 134.144" xmlns:v="https://vecta.io/nano"><style><![CDATA[.B{marker-end:url(#A)}.C{font-weight:bold}.D{font-family:sans-serif}.E{text-anchor:middle}.F{stroke:#63fdfc}.G{stroke:#f02903}.H{font-family:KacstPoster}.I{font-size:4.539px}.J{fill-rule:evenodd}.K{fill:#dbff59}.L{fill:#63fdfc}.M{fill:#a235ff}.N{fill:#4130ff}.O{stroke:context-stroke}.P{fill:context-stroke}.Q{stroke-width:.625}.R{stroke-linejoin:round}]]></style><defs><marker id="A" refX="0.0" refY="0.0" orient="auto" overflow="visible"><path transform="matrix(-.3 0 0 -.3 .69 0)" d="M8.719 4.034L-2.207.016 8.719-4.002c-1.745 2.372-1.735 5.617 0 8.035z" class="J O P Q R"/></marker><marker id="B" refX="0" refY="0" orient="auto" overflow="visible"><path transform="matrix(-.3 0 0 -.3 .69 0)" d="M8.719 4.034L-2.207.016 8.719-4.002c-1.745 2.372-1.735 5.617 0 8.035z" class="J O P Q R"/></marker><filter id="C" x="-.018" y="-.031" width="1.036" height="1.063" color-interpolation-filters="sRGB"><feGaussianBlur stdDeviation=".675"/></filter><path id="D" d="M80.029 46.668s.588 3.421-4.104 8.781c-1.811 2.069-4.558 4.432-8.828 8.035"/><path id="E" d="M80.029 89.872s.588-3.421-4.104-8.781c-1.811-2.069-4.558-4.432-8.828-8.035"/><path id="F" d="M63.953 37.344c2.349-5.16 8.806-10.137 12.122-12.893"/><path id="G" d="M63.953 99.327c2.349 5.16 8.806 10.137 12.122 12.893"/><path id="H" d="M56.91 16.756l-3.143 1.522 1.409-3.196a2.05 2.05 0 0 0 1.735 1.674z"/><path id="I" d="M55.168 121.464l-1.409-3.196 3.143 1.522a2.05 2.05 0 0 0-1.735 1.674z"/><path id="J" d="M111.163 44.507v-.371h-.788v-4.264h.788v-.374h-2.642v.374h.788v1.847h-2.285v-1.847h.788v-.374h-2.642v.374h.788v4.264h-.788v.371h2.642v-.371h-.788V42.09h2.285v2.046h-.788v.371z"/><path id="K" d="M111.163 97.486v-.371h-.788v-4.264h.788v-.374h-2.642v.374h.788v1.847h-2.285v-1.847h.788v-.374h-2.642v.374h.788v4.264h-.788v.371h2.642v-.371h-.788v-2.046h2.285v2.046h-.788v.371z"/><path id="L" d="M83.437 23.48v-.371h.788v-4.264h-.788v-.374h2.842v.374h-.988v4.264h.731q.506 0 .809-.217.303-.217.446-.585.143-.371.196-.856h.374l-.228 2.029z"/><path id="M" d="M109.896 71.165v-.371h.788V66.53h-.788v-.374h2.842v.374h-.988v4.264h.731q.506 0 .809-.217.303-.217.446-.585.143-.371.196-.856h.374l-.228 2.029z"/></defs><path d="M0 0h152.4v134.144H0z" fill="#fff"/><g fill="none" stroke-width=".8" class="B"><path d="M104.621 16.181s12.683 9.552 18.106 18.315c1.142 1.845.749 1.901-3.404 2.188" class="F"/><path d="M116.444 36.779s-3.311.932-4.988-1.401l-3.246-4.145c-2.037-2.727-4.585-5.047-7.219-7.701-2.253-2.27-2.572-5.917-3.031-7.794-.676-2.764-.276-2.295 3.062-1.457" class="G"/><path d="M147.756 61.206s1.705-3.929-16.922-19.284c-4.052-3.34-4.088-3.756-9.298-2.814" class="F"/><path d="M119.524 39.475s-3.454-.637-3.536 2.591c-.047 1.846 1.393 3.753 2.918 5.966 1.256 1.823 3.09 6.596 3.505 14.228.153 2.814 1.421 4.908 7.588 5.016 6.125.283 11.958.781 15.334-.758 1.242-.566.651-.244 1.884-1.839" class="G"/><g class="F"><path d="M88.817 10.822S78.656 7.753 72.837 6.98"/><path d="M69.303 6.317s-3.884-.69-4.041 1.789c-.152 2.403 1.174 2.549 3.261 2.853"/><path d="M72.399 11.37l2.844.237c2.377.24 4.701.744 10.565 2.951"/></g><path d="M88.337 15.708s2.574 1.272 4.677 2.661c1.129.745 2.062 1.523 2.65 2.003 1.735 1.418 2.044.834 1.023-1.299-.872-1.821-1.299-2.766-3.091-5.071-.591-.761-.86-.784-1.845-1.482" class="G"/><path d="M23.672 16.181S10.989 25.733 5.566 34.496c-1.142 1.845-.749 1.901 3.404 2.188" class="F"/><path d="M11.848 36.779s3.311.932 4.988-1.401l3.246-4.145c2.037-2.727 4.585-5.047 7.219-7.701 2.253-2.27 2.572-5.917 3.031-7.794.676-2.764.276-2.295-3.062-1.457" class="G"/><path d="M-19.464 61.206s-1.705-3.929 16.922-19.284c4.052-3.34 4.088-3.756 9.298-2.814" class="F"/><path d="M8.768 39.475s3.454-.637 3.536 2.591c.047 1.846-1.393 3.753-2.918 5.966-1.256 1.823-3.09 6.596-3.505 14.228-.153 2.814-1.421 4.908-7.588 5.016-6.125.283-11.958.781-15.334-.758-1.242-.566-.651-.244-1.884-1.839" class="G"/><g class="F"><path d="M39.475 10.822S49.637 7.753 55.456 6.98"/><path d="M58.989 6.317s3.884-.69 4.041 1.789c.152 2.403-1.174 2.549-3.261 2.853"/><path d="M55.894 11.37l-2.844.237c-2.377.24-4.701.744-10.565 2.951"/></g><path d="M39.955 15.708s-2.574 1.272-4.677 2.661c-1.129.745-2.062 1.523-2.65 2.003-1.735 1.418-2.044.834-1.023-1.299.872-1.821 1.299-2.766 3.091-5.071.591-.761.86-.784 1.845-1.482" class="G"/><path d="M23.672 120.359s-12.683-9.552-18.106-18.315c-1.142-1.845-.749-1.901 3.404-2.188" class="F"/><path d="M11.848 99.761s3.311-.932 4.988 1.401l3.246 4.145c2.037 2.727 4.585 5.047 7.219 7.701 2.253 2.27 2.572 5.917 3.031 7.794.676 2.764.276 2.295-3.062 1.457" class="G"/><path d="M-19.464 75.334s-1.705 3.929 16.922 19.284c4.052 3.34 4.088 3.756 9.298 2.814" class="F"/><path d="M8.768 97.065s3.454.637 3.536-2.591c.047-1.846-1.393-3.753-2.918-5.966-1.256-1.823-3.09-6.596-3.505-14.228-.153-2.814-1.421-4.908-7.588-5.016-6.125-.283-11.958-.781-15.334.758-1.242.566-.651.244-1.884 1.839" class="G"/><g class="F"><path d="M39.475 125.718s10.162 3.069 15.981 3.842"/><path d="M58.989 130.223s3.884.69 4.041-1.789c.152-2.403-1.174-2.549-3.261-2.853"/><path d="M55.894 125.17l-2.844-.237c-2.377-.24-4.701-.744-10.565-2.951"/></g><path d="M39.955 120.832s-2.574-1.272-4.677-2.661c-1.129-.745-2.062-1.523-2.65-2.004-1.735-1.418-2.044-.834-1.023 1.299.872 1.821 1.299 2.766 3.091 5.071.591.761.86.784 1.845 1.482" class="G"/><path d="M104.621 120.359s12.683-9.552 18.106-18.315c1.142-1.845.749-1.901-3.404-2.188" class="F"/><path d="M116.444 99.761s-3.311-.932-4.988 1.401l-3.246 4.145c-2.037 2.727-4.585 5.047-7.219 7.701-2.253 2.27-2.572 5.917-3.031 7.794-.676 2.764-.276 2.295 3.062 1.457" class="G"/><path d="M147.756 75.334s1.705 3.929-16.922 19.284c-4.052 3.34-4.088 3.756-9.298 2.814" class="F"/><path d="M119.524 97.065s-3.454.637-3.536-2.591c-.047-1.846 1.393-3.753 2.918-5.966 1.256-1.823 3.09-6.596 3.505-14.228.153-2.814 1.421-4.908 7.588-5.016 6.125-.283 11.958-.781 15.334.758 1.242.566.651.244 1.884 1.839" class="G"/><g class="F"><path d="M88.817 125.718s-10.162 3.069-15.981 3.842"/><path d="M69.303 130.223s-3.884.69-4.041-1.789c-.152-2.403 1.174-2.549 3.261-2.853"/><path d="M72.399 125.17l2.844-.237c2.377-.24 4.701-.744 10.565-2.951"/></g><path d="M88.337 120.832s2.574-1.272 4.677-2.661c1.129-.745 2.062-1.523 2.65-2.004 1.735-1.418 2.044-.834 1.023 1.299-.872 1.821-1.299 2.766-3.091 5.071-.591.761-.86.784-1.845 1.482" class="G"/></g><circle cx="64.146" cy="68.27" r="56" fill="#007910"/><g fill="none" class="B"><g class="F"><use href="#D"/><use href="#D" x="-19.099"/><use href="#D" x="-38.199"/><use href="#D" x="-57.298"/><use href="#E"/><use href="#E" x="19.099"/><use href="#E" x="-19.099"/><use href="#E" x="-38.199"/><use href="#E" x="-57.298"/></g><g class="G"><use href="#F"/><use href="#F" x="-19.463"/><use href="#F" x="-38.927"/><use href="#F" x="19.464"/><use href="#G"/><use href="#G" x="-19.463"/><use href="#G" x="-38.927"/><use href="#G" x="19.464"/></g></g><g class="L"><path d="M75.935 13.525l-3.666 3.43.721.693c.315-.327 2.077-1.966 3.709-3.469l.42-.386-1.184-.268zm-15.201-1.151l-1.611.122-1.032.949-3.75 3.51.719.693c.315-.327 2.077-1.966 3.709-3.469l1.965-1.805z"/><g class="J"><use href="#H"/><path d="M55.186 14.99a.094.094 0 0 0-.096.055l-1.41 3.195a.094.094 0 0 0 .127.123l3.145-1.521a.094.094 0 0 0-.027-.178c-.844-.123-1.515-.767-1.656-1.598a.094.094 0 0 0-.082-.076zm0 .301c.208.73.772 1.274 1.514 1.463l-2.744 1.328z"/><use href="#H" x="17.928"/><path d="M73.115 14.99a.094.094 0 0 0-.098.055l-1.408 3.195a.094.094 0 0 0 .127.123l3.143-1.521a.094.094 0 0 0-.027-.178c-.844-.123-1.515-.767-1.656-1.598a.094.094 0 0 0-.08-.076zm0 .301a2.08 2.08 0 0 0 1.514 1.463l-2.744 1.328z"/></g><path d="M72.99 118.89l-.721.696c.419.434 2.066 1.956 3.665 3.429l1.186-.269-.421-.387-3.709-3.469zm-17.929 0l-.719.696c.428.444 2.116 2.005 3.75 3.51l1.032.948 1.612.122-1.966-1.807-3.709-3.469z"/><g class="J"><use href="#I"/><path d="M53.801 118.184a.094.094 0 0 0-.127.123l1.408 3.195a.094.094 0 0 0 .178-.022c.153-.839.821-1.486 1.656-1.598a.094.094 0 0 0 .027-.178zm.148.281l2.744 1.328c-.737.182-1.299.727-1.514 1.463z"/><use href="#I" x="17.929"/><path d="M71.729 118.184a.094.094 0 0 0-.127.123l1.41 3.195a.094.094 0 0 0 .178-.022c.153-.839.819-1.486 1.654-1.598a.094.094 0 0 0 .029-.178zm.148.281l2.744 1.328c-.737.182-1.299.727-1.514 1.463z"/></g></g><use href="#D" x="19.099" fill="none" marker-end="url(#B)" class="F"/><g class="L"><path d="M117.077 49.99c-.551 1.353-1.542 3.088-3.329 5.129-1.771 2.023-4.507 4.381-8.776 7.982l.645.766c4.272-3.604 7.031-5.972 8.883-8.088 1.443-1.648 2.403-3.126 3.039-4.391l-.462-1.398zm-11.46 22.684l-.645.764c4.268 3.601 7.005 5.96 8.776 7.982 1.764 2.015 2.753 3.732 3.308 5.078l.476-1.359c-.636-1.262-1.594-2.735-3.032-4.377-1.852-2.116-4.611-4.484-8.883-8.088z"/><g class="J"><path d="M107.548 63.167l-3.282 1.192 1.728-3.035a2.05 2.05 0 0 0 1.554 1.842z"/><path d="M106.014 61.234a.094.094 0 0 0-.102.045l-1.729 3.033a.094.094 0 0 0 .113.135l3.283-1.191a.094.094 0 0 0-.01-.18c-.827-.209-1.428-.917-1.484-1.758a.094.094 0 0 0-.072-.084zm-.031.299a2.08 2.08 0 0 0 1.359 1.609l-2.867 1.041zm.004 13.689l-1.728-3.035 3.282 1.192a2.05 2.05 0 0 0-1.554 1.842z"/><path d="M104.291 72.1a.094.094 0 0 0-.113.135l1.729 3.035a.094.094 0 0 0 .174-.039c.067-.851.663-1.563 1.482-1.76a.094.094 0 0 0 .012-.18zm.176.264l2.867 1.041a2.08 2.08 0 0 0-1.357 1.609z"/></g></g><path d="M36.301 19.684l-1.021.599h57.731l-1.026-.599zM14.935 41.545l-.322.602h99.067l-.322-.602zM8.147 67.971l-.001.3.001.3h111.998l.001-.3-.001-.3zm6.545 26.573l.313.581h98.281l.323-.599zm20.586 21.712l1.021.599h55.694l1.021-.599z" class="K"/><g class="L"><path d="M17.129 44.507v-.371h.788v-4.264h-.788v-.374h2.642v.374h-.788v1.847h2.285v-1.847h-.788v-.374h2.642v.374h-.788v4.264h.788v.371h-2.642v-.371h.788V42.09h-2.285v2.046h.788v.371z"/><use href="#J"/><use href="#J" x="-21.923"/><use href="#J" x="-43.845"/><use href="#J" x="-65.768"/><path d="M17.129 97.486v-.371h.788v-4.264h-.788v-.374h2.642v.374h-.788v1.847h2.285v-1.847h-.788v-.374h2.642v.374h-.788v4.264h.788v.371h-2.642v-.371h.788v-2.046h-2.285v2.046h.788v.371z"/><use href="#K"/><use href="#K" x="-21.923"/><use href="#K" x="-43.845"/><use href="#K" x="-65.768"/></g><g fill="#f02903"><use href="#L"/><use href="#L" x="-43.327"/><use href="#L" x="-21.663"/><use href="#M"/><use href="#L" y="94.903"/><use href="#L" x="-43.327" y="94.903"/><use href="#L" x="-21.663" y="94.903"/><use href="#M" x="-96.245"/><use href="#M" x="-72.184"/><use href="#M" x="-48.122"/><use href="#M" x="-24.061"/></g><text xml:space="preserve" x="81.388" y="7.284" letter-spacing="-.124" class="H I M"><tspan x="81.388" y="7.284" class="C D E">POLAR</tspan><tspan x="81.388" y="13.105" class="C D E">CELL</tspan></text><text xml:space="preserve" x="64.301" y="83.2" letter-spacing="-.124" class="H I K"><tspan x="64.239" y="83.2" class="C D E">TRADE WINDS</tspan></text><text xml:space="preserve" x="63.07" y="107.343" letter-spacing="-.124" class="H I K"><tspan x="63.008" y="107.343" class="C D E">WESTERLIES</tspan></text><text xml:space="preserve" x="64.118" y="120.298" font-size="3.024" letter-spacing="-.083" class="H K"><tspan x="64.118" y="120.298" class="C D E">POLAR</tspan><tspan x="64.077" y="123.935" class="C D E">EASTERLIES</tspan></text><text xml:space="preserve" x="114.7" y="25.829" letter-spacing="-.124" class="H I M"><tspan x="114.7" y="25.829" class="C D E">FERREL</tspan><tspan x="114.7" y="31.65" class="C D E">CELL</tspan></text><text xml:space="preserve" x="132.511" y="56.272" letter-spacing="-.124" class="H I M"><tspan x="132.511" y="56.272" class="C D E">HADLEY</tspan><tspan x="132.511" y="62.093" class="C D E">CELL</tspan></text><g filter="url(#C)" class="H I"><text xml:space="preserve" x="63.95" y="21.636" letter-spacing="-.124" fill="#fff"><tspan x="63.888" y="21.636" class="C D E">POLAR FRONT</tspan></text><text xml:space="preserve" x="64.104" y="43.498" letter-spacing="-.124" fill="#fff"><tspan x="64.042" y="43.498" class="C D E">HORSE LATITUDES</tspan></text><text xml:space="preserve" x="64.104" y="69.922" letter-spacing="-.124" fill="#fff"><tspan x="64.042" y="69.922" class="C D E">INTERTROPICAL CONVERGENCE ZONE</tspan></text></g><text xml:space="preserve" x="63.95" y="21.636" letter-spacing="-.124" class="H I N"><tspan x="63.888" y="21.636" class="C D E">POLAR FRONT</tspan></text><text xml:space="preserve" x="64.104" y="43.498" letter-spacing="-.124" class="H I N"><tspan x="64.042" y="43.498" class="C D E">HORSE LATITUDES</tspan></text><text xml:space="preserve" x="64.104" y="69.922" letter-spacing="-.124" class="H I N"><tspan x="64.042" y="69.922" class="C D E">INTERTROPICAL CONVERGENCE ZONE</tspan></text></svg>