<?xml version="1.0" encoding="UTF-8" standalone="no"?>
<!-- Created with Inkscape (http://www.inkscape.org/) -->
<svg
   xmlns:dc="http://purl.org/dc/elements/1.1/"
   xmlns:cc="http://web.resource.org/cc/"
   xmlns:rdf="http://www.w3.org/1999/02/22-rdf-syntax-ns#"
   xmlns:svg="http://www.w3.org/2000/svg"
   xmlns="http://www.w3.org/2000/svg"
   xmlns:sodipodi="http://sodipodi.sourceforge.net/DTD/sodipodi-0.dtd"
   xmlns:inkscape="http://www.inkscape.org/namespaces/inkscape"
   width="710"
   height="550"
   id="svg2"
   sodipodi:version="0.32"
   inkscape:version="0.45.1"
   sodipodi:docbase="C:\Documents and Settings\Administrator\Desktop\WEather"
   sodipodi:docname="occluded_cyclone.svg"
   inkscape:output_extension="org.inkscape.output.svg.inkscape"
   version="1.0">
  <defs
     id="defs4">
    <marker
       inkscape:stockid="Arrow2Mend"
       orient="auto"
       refY="0"
       refX="0"
       id="Arrow2Mend"
       style="overflow:visible">
      <path
         id="path9966"
         style="font-size:12px;fill-rule:evenodd;stroke-width:0.625;stroke-linejoin:round"
         d="M 8.7185878,4.0337352 L -2.2072895,0.016013256 L 8.7185884,-4.0017078 C 6.97309,-1.6296469 6.9831476,1.6157441 8.7185878,4.0337352 z "
         transform="scale(-0.6,-0.6)" />
    </marker>
    <marker
       inkscape:stockid="Arrow2Mstart"
       orient="auto"
       refY="0"
       refX="0"
       id="Arrow2Mstart"
       style="overflow:visible">
      <path
         id="path9963"
         style="font-size:12px;fill-rule:evenodd;stroke-width:0.625;stroke-linejoin:round"
         d="M 8.7185878,4.0337352 L -2.2072895,0.016013256 L 8.7185884,-4.0017078 C 6.97309,-1.6296469 6.9831476,1.6157441 8.7185878,4.0337352 z "
         transform="scale(0.6,0.6)" />
    </marker>
    <marker
       inkscape:stockid="Arrow2Lstart"
       orient="auto"
       refY="0"
       refX="0"
       id="Arrow2Lstart"
       style="overflow:visible">
      <path
         id="path9957"
         style="font-size:12px;fill-rule:evenodd;stroke-width:0.625;stroke-linejoin:round"
         d="M 8.7185878,4.0337352 L -2.2072895,0.016013256 L 8.7185884,-4.0017078 C 6.97309,-1.6296469 6.9831476,1.6157441 8.7185878,4.0337352 z "
         transform="matrix(1.1,0,0,1.1,1.1,0)" />
    </marker>
    <marker
       inkscape:stockid="Arrow1Mend"
       orient="auto"
       refY="0"
       refX="0"
       id="Arrow1Mend"
       style="overflow:visible">
      <path
         id="path9948"
         d="M 0,0 L 5,-5 L -12.5,0 L 5,5 L 0,0 z "
         style="fill-rule:evenodd;stroke:#000000;stroke-width:1pt;marker-start:none"
         transform="matrix(-0.4,0,0,-0.4,-4,0)" />
    </marker>
    <marker
       inkscape:stockid="Arrow1Lstart"
       orient="auto"
       refY="0"
       refX="0"
       id="Arrow1Lstart"
       style="overflow:visible">
      <path
         id="path9939"
         d="M 0,0 L 5,-5 L -12.5,0 L 5,5 L 0,0 z "
         style="fill-rule:evenodd;stroke:#000000;stroke-width:1pt;marker-start:none"
         transform="matrix(0.8,0,0,0.8,10,0)" />
    </marker>
  </defs>
  <sodipodi:namedview
     id="base"
     pagecolor="#ffffff"
     bordercolor="#666666"
     borderopacity="1.0"
     gridtolerance="10000"
     guidetolerance="10"
     objecttolerance="10"
     inkscape:pageopacity="0.0"
     inkscape:pageshadow="2"
     inkscape:zoom="0.9899495"
     inkscape:cx="118.55828"
     inkscape:cy="224.38554"
     inkscape:document-units="px"
     inkscape:current-layer="layer1"
     inkscape:window-width="1680"
     inkscape:window-height="994"
     inkscape:window-x="0"
     inkscape:window-y="22"
     showborder="true"
     borderlayer="false"
     height="550px"
     width="710px" />
  <metadata
     id="metadata7">
    <rdf:RDF>
      <cc:Work
         rdf:about="">
        <dc:format>image/svg+xml</dc:format>
        <dc:type
           rdf:resource="http://purl.org/dc/dcmitype/StillImage" />
      </cc:Work>
    </rdf:RDF>
  </metadata>
  <g
     inkscape:label="Layer 1"
     inkscape:groupmode="layer"
     id="layer1"
     transform="translate(-14.089695,-213.06681)">
    <rect
       style="opacity:1;fill:#ffffff;fill-opacity:1;stroke:#ffffff;stroke-width:4.04296923;stroke-linecap:square;stroke-linejoin:miter;stroke-miterlimit:4;stroke-dasharray:none;stroke-dashoffset:0;stroke-opacity:1"
       id="rect10147"
       width="744.34283"
       height="584.3429"
       x="-7.1122255"
       y="198.91571" />
    <path
       style="fill:#33cc33;fill-opacity:1;fill-rule:evenodd;stroke:#33cc33;stroke-width:1.64999998px;stroke-linecap:butt;stroke-linejoin:miter;stroke-opacity:1"
       d="M 82.461508,739.33986 C 86.034566,675.24102 408.61313,607.63352 454.78898,563.58973 C 494.6568,528.69623 497.32967,511.44427 493.1763,476.39998 C 490.55309,433.32616 396.86345,550.91959 352.37171,465.66003 C 333.11766,399.67498 373.89598,341.84914 423.13506,300.78566 C 515.98797,233.19853 541.70597,311.0506 554.07493,328.5485 C 595.11639,440.54478 553.82839,569.61712 550.15216,628.65525 L 538.95572,631.60169 C 516.11728,593.00875 528.08778,548.93481 525.68812,508.29798 L 512.33676,511.74994 C 505.4757,560.58749 462.18886,584.02841 424.99684,604.63035 L 191.27716,700.0354 C 155.00527,707.85885 112.52243,747.04384 82.461508,739.33986 z "
       id="path3141"
       sodipodi:nodetypes="ccccccccccccc" />
    <path
       style="fill:#009933;fill-opacity:1;fill-rule:evenodd;stroke:#009933;stroke-width:1.64999998px;stroke-linecap:butt;stroke-linejoin:miter;stroke-opacity:1"
       d="M 93.274849,740.88271 C 210.42236,666.77032 358.75594,646.53263 473.56635,572.97817 C 504.07735,546.76215 515.72527,501.90489 506.26305,464.8948 C 487.35031,428.3109 454.42667,472.58389 428.47733,479.62692 C 384.85136,483.49896 382.78767,432.86485 388.40591,401.25192 C 403.72525,355.30285 429.53388,326.36006 472.08447,317.57336 C 557.76785,311.26942 554.00504,484.51158 535.13805,558.59122 L 524.53091,558.59122 L 522.76305,504.96622 L 499.78091,556.82336 C 484.23753,578.66965 462.52744,598.97428 440.85233,619.28764 L 355.99519,669.37692 L 282.92377,700.01978 L 209.85235,721.23408 L 160.35232,735.37694 C 139.6172,741.52868 115.52469,739.27504 93.274849,740.88271 z "
       id="path2168"
       sodipodi:nodetypes="cccccccccccccccc" />
    <text
       xml:space="preserve"
       style="font-size:105.59999847px;font-style:normal;font-weight:normal;text-align:center;text-anchor:middle;fill:#ff0101;fill-opacity:1;stroke:none;stroke-width:1px;stroke-linecap:butt;stroke-linejoin:miter;stroke-opacity:1;font-family:Arial Black"
       x="450.76086"
       y="438.54852"
       id="text3143"><tspan
         sodipodi:role="line"
         id="tspan3145"
         x="450.76087"
         y="438.54852"
         style="fill:#ff0101;fill-opacity:1;font-family:serif">L</tspan></text>
    <path
       style="fill:#ff0101;fill-opacity:1;fill-rule:evenodd;stroke:#ff0101;stroke-width:1.64999998px;stroke-linecap:butt;stroke-linejoin:miter;stroke-opacity:1"
       d="M 677.85578,755.23127 L 678.68916,749.39765 C 672.57773,748.84206 666.18853,748.56427 661.18827,746.89752 C 664.664,719.09686 639.37947,723.1346 634.93693,736.89702 C 617.9533,729.57097 607.74375,720.22341 595.76825,711.89573 C 611.01851,685.67156 585.2757,683.15607 576.18393,689.39458 C 565.86701,677.04571 558.22992,663.66467 551.18265,650.22592 C 574.18746,640.16535 554.57538,616.08442 540.76546,624.39128 C 536.21773,609.54134 530.90088,594.43504 529.51488,580.63903 C 550.26751,574.66547 549.22687,550.52909 526.18139,552.30426 C 524.32743,535.86623 524.12373,521.07844 523.26457,505.63521 L 518.681,506.46858 C 507.5769,612.60912 572.24368,750.08159 677.85578,755.23127 z "
       id="path3151"
       sodipodi:nodetypes="ccccccccccccc" />
    <path
       style="fill:#0101ff;fill-opacity:1;fill-rule:evenodd;stroke:#0101ff;stroke-width:1.64999998px;stroke-linecap:butt;stroke-linejoin:miter;stroke-opacity:1"
       d="M 92.825933,744.81408 C 286.45825,705.11328 493.76004,637.77518 519.93105,491.05115 L 525.76468,491.46784 C 518.76215,516.00873 514.30115,541.1144 497.8466,563.55483 L 503.26353,586.05598 L 479.51232,586.05598 C 466.68219,598.9951 452.99539,611.72007 435.76009,623.55789 L 435.3434,647.30912 L 412.00888,640.6421 C 391.86832,652.30937 374.25839,663.97662 345.75549,675.64388 L 340.33855,698.56172 L 319.50416,688.14454 C 293.53062,697.74349 267.55705,706.99448 241.58351,714.39587 L 234.08313,735.23026 L 215.74887,722.72963 L 142.82847,740.23052 L 134.49472,758.56479 L 116.57714,746.48083 L 93.242608,749.81434 L 92.825933,744.81408 z "
       id="path3147"
       sodipodi:nodetypes="cccccccccccccccccccc" />
    <path
       style="fill:#9802cb;fill-opacity:1;fill-rule:evenodd;stroke:#9802cb;stroke-width:1.64999998px;stroke-linecap:butt;stroke-linejoin:miter;stroke-opacity:1"
       d="M 519.93105,490.90813 C 523.32771,467.20241 516.42855,400.95297 476.17883,398.82011 L 475.76214,391.31973 C 482.84584,392.60143 489.92953,395.04533 497.01324,399.65349 L 517.01424,397.57004 L 513.68074,420.48788 C 516.95873,426.15476 519.84544,432.6042 522.0145,440.48891 C 538.31188,437.43513 554.12634,460.93301 526.59807,469.24037 C 525.84033,476.9429 525.44357,485.11784 525.76469,491.74152 L 519.93105,490.90813 z "
       id="path3149"
       sodipodi:nodetypes="cccccccccc" />
    <g
       id="g3189">
      <path
         style="fill:#000000;fill-opacity:1;fill-rule:evenodd;stroke:none;stroke-width:3.29999995;stroke-linecap:butt;stroke-linejoin:miter;stroke-miterlimit:4;stroke-opacity:1"
         d="M 105.4375,474.03125 C 98.674293,473.58376 92.202216,474.46834 86.09375,476.34375 C 61.659885,483.84538 43.206535,506.62807 34.3125,521.875 L 37.15625,523.5625 C 45.763104,508.80788 63.993935,486.58246 87.0625,479.5 C 98.596782,475.95877 111.32415,476.09365 125.03125,482.71875 C 138.71805,489.33404 153.39332,502.52881 168.46875,525.21875 C 168.4911,525.25239 168.5089,525.27881 168.53125,525.3125 C 218.88825,613.54478 235.12291,645.9542 243.25,662 C 251.38062,678.05276 251.55735,677.94412 269.46875,700.4375 L 270.0625,701.1875 L 271.03125,701.03125 C 454.48823,667.67545 546.375,630.9375 546.375,630.9375 L 546.71875,630.78125 L 546.96875,630.53125 L 611.125,562.1875 L 611.21875,562.125 L 611.25,562.03125 C 618.17349,552.61907 632.59086,539.91135 647.21875,529.28125 C 661.84664,518.65115 676.99229,510.02284 684.53125,508.46875 L 683.84375,505.25 C 674.90037,507.0936 660.08349,515.8682 645.28125,526.625 C 630.54148,537.33641 616.11511,549.94133 608.71875,559.9375 C 608.6874,559.97987 608.62484,560.02023 608.59375,560.0625 L 544.78125,628 C 543.79815,628.39219 452.98723,664.51035 271.4375,697.59375 C 254.47566,676.30732 254.16035,676.27253 246.1875,660.53125 C 238.06729,644.49904 221.77369,611.91909 171.34375,523.5625 L 171.3125,523.53125 L 171.28125,523.46875 C 155.96199,500.38492 140.88809,486.71935 126.46875,479.75 C 119.25908,476.26533 112.20071,474.47874 105.4375,474.03125 z "
         id="path2223" />
      <path
         d="M 665.66289,502.53088 L 688.45673,505.95448 L 668.87509,518.11342 C 671.31176,512.81569 669.9949,506.52616 665.66289,502.53088 z "
         style="font-size:12px;fill-rule:evenodd;stroke-width:0.625;stroke-linejoin:round"
         id="path3195" />
    </g>
    <g
       id="g3198">
      <path
         style="fill:#000000;fill-opacity:1;fill-rule:evenodd;stroke:none;stroke-width:3.29999995;stroke-linecap:butt;stroke-linejoin:miter;stroke-miterlimit:4;stroke-opacity:1"
         d="M 104.46875,549.875 C 97.503559,549.42662 89.592901,551.56502 81.15625,557.84375 C 69.907382,566.21539 57.559418,581.84119 44.25,608.65625 L 47.21875,610.125 C 60.393117,583.58203 72.532297,568.38331 83.125,560.5 C 93.717703,552.61669 102.61716,551.92449 110.09375,554.28125 C 124.99896,558.97966 134.19115,576.6677 134.25,576.78125 C 134.25019,576.78162 134.28125,576.8125 134.28125,576.8125 C 134.46025,577.28367 169.03249,668.44144 164.09375,735.9375 L 163.96875,737.6875 L 165.71875,737.71875 C 165.71875,737.71875 209.69612,738.75082 259.84375,737.8125 C 309.88068,736.87625 365.81093,734.09596 391.0625,726.03125 C 391.0625,726.03125 437.3136,717.69138 483.375,708.625 C 506.4057,704.09181 529.38633,699.35976 546.53125,695.40625 C 555.10371,693.4295 562.21982,691.64655 567.1875,690.15625 C 569.67134,689.4111 571.60882,688.74666 573,688.125 C 573.69559,687.81417 574.22364,687.54119 574.71875,687.15625 C 574.96631,686.96378 575.21295,686.74289 575.4375,686.375 C 575.47255,686.31757 575.43694,686.19441 575.46875,686.125 L 621.28125,621.40625 L 618.9375,619.15625 C 618.95994,619.13907 618.96511,619.08183 619.34375,618.96875 C 619.53307,618.91221 619.8976,618.79474 620.40625,619 C 620.9149,619.20526 621.29248,619.78682 621.375,620.125 C 621.54005,620.80135 621.36653,620.87036 621.34375,620.9375 C 621.42017,620.7875 621.74406,620.30845 622.1875,619.65625 C 623.08958,618.32949 624.60639,616.24079 626.625,613.71875 C 630.66222,608.67467 636.6481,601.8124 643.625,595.25 C 650.6019,588.6876 658.58272,582.44451 666.46875,578.5625 C 674.35478,574.68049 682.01981,573.19987 688.71875,575.78125 L 689.90625,572.71875 C 682.03256,569.68468 673.35347,571.48164 665,575.59375 C 656.64653,579.70586 648.49962,586.1424 641.375,592.84375 C 634.25038,599.5451 628.18399,606.50688 624.0625,611.65625 C 622.00176,614.23093 620.41566,616.3426 619.4375,617.78125 C 618.94842,618.50058 618.63759,619.03572 618.40625,619.5 C 618.34841,619.61607 618.27456,619.71049 618.21875,619.875 C 618.21032,619.89983 618.23107,620.00533 618.21875,620.03125 L 572.75,684.28125 L 572.40625,684.71875 C 572.21979,684.83235 572.05915,684.94496 571.65625,685.125 C 570.52045,685.63254 568.63425,686.27535 566.21875,687 C 561.38775,688.4493 554.31904,690.21874 545.78125,692.1875 C 528.70568,696.12502 505.76332,700.84523 482.75,705.375 C 436.72336,714.43454 390.46875,722.78125 390.46875,722.78125 L 390.34375,722.78125 L 390.25,722.8125 C 366.25189,730.5407 309.84707,733.59446 259.78125,734.53125 C 211.21251,735.44002 169.98469,734.49526 167.46875,734.4375 C 171.81965,665.64116 137.28125,575.46875 137.28125,575.46875 L 137.25,575.375 L 137.21875,575.3125 C 137.21875,575.3125 127.90098,556.42296 111.09375,551.125 C 108.99285,550.46275 106.79048,550.02446 104.46875,549.875 z "
         id="path2221" />
      <path
         d="M 676.0895,560.58592 L 693.41546,575.78762 L 670.36868,575.432 C 675.28241,572.29215 677.57437,566.28888 676.0895,560.58592 z "
         style="font-size:12px;fill-rule:evenodd;stroke-width:0.625;stroke-linejoin:round"
         id="path3204" />
    </g>
    <g
       id="g3180">
      <path
         style="fill:#000000;fill-opacity:1;fill-rule:evenodd;stroke:none;stroke-width:3.29999995;stroke-linecap:butt;stroke-linejoin:miter;stroke-miterlimit:4;stroke-opacity:1"
         d="M 115.90625,381 C 84.25286,382.50573 54.030936,398.3727 35.65625,410.5 L 37.46875,413.25 C 58.137895,399.60836 94.18526,381.29116 129.25,384.5625 C 146.78237,386.19817 164.08955,393.14454 179.4375,408.8125 C 194.78545,424.48046 208.14298,448.94363 217.46875,485.625 L 217.5,485.71875 L 217.53125,485.8125 C 235.46536,533.35872 247.17923,558.32098 254.46875,571.46875 C 258.11351,578.04264 260.65771,581.6535 262.34375,583.6875 C 263.18677,584.7045 263.81488,585.32602 264.28125,585.71875 C 264.49165,585.89593 264.54392,585.89076 264.71875,586 C 327.99396,666.85424 437.8472,625.08935 444.65625,622.59375 L 444.75,622.5625 L 444.875,622.53125 C 485.01938,601.40697 537.26382,574.41907 570.34375,540.90625 L 570.4375,540.8125 L 570.5,540.71875 C 577.75526,530.80537 614.96797,482.04971 638.71875,453.40625 L 638.78125,453.3125 L 638.84375,453.21875 C 644.28659,444.33896 653.58306,437.60541 662.4375,432.96875 C 671.29194,428.33209 679.76841,425.78102 683.125,425.1875 L 682.5625,421.9375 C 678.59745,422.6386 670.08154,425.22657 660.90625,430.03125 C 651.79709,434.8013 642.12069,441.76004 636.1875,451.3125 C 636.14443,451.38185 636.07393,451.43038 636.03125,451.5 C 612.24573,480.20027 575.50699,528.31615 568,538.5625 C 567.99642,538.56738 567.97231,538.58889 567.96875,538.59375 C 535.54148,571.42941 483.65329,598.38872 443.53125,619.5 C 443.46522,619.53475 443.37847,619.55904 443.3125,619.59375 C 435.35461,622.52056 328.72013,662.67491 267.1875,583.8125 L 266.9375,583.46875 L 266.53125,583.3125 C 266.53125,583.3125 266.68016,583.41816 266.40625,583.1875 C 266.13234,582.95684 265.62098,582.46244 264.875,581.5625 C 263.38303,579.76263 260.95385,576.29876 257.375,569.84375 C 250.22773,556.95255 238.54435,532.13607 220.6875,484.8125 C 220.67911,484.77948 220.66465,484.75175 220.65625,484.71875 C 220.6432,484.68417 220.63805,484.65961 220.625,484.625 C 211.20178,447.66147 197.63057,422.67979 181.78125,406.5 C 165.90365,390.29134 147.72987,382.97908 129.53125,381.28125 C 124.9816,380.85679 120.42816,380.7849 115.90625,381 z "
         id="path2225" />
      <path
         d="M 664.45676,418.70452 L 687.14468,422.77131 L 667.22704,434.37166 C 669.81255,429.14495 668.67407,422.8207 664.45676,418.70452 z "
         style="font-size:12px;fill-rule:evenodd;stroke-width:0.625;stroke-linejoin:round"
         id="path3186" />
    </g>
    <g
       id="g3162">
      <path
         style="fill:#000000;fill-opacity:1;fill-rule:evenodd;stroke:none;stroke-width:3.29999995;stroke-linecap:butt;stroke-linejoin:miter;stroke-miterlimit:4;stroke-opacity:1"
         d="M 493.6875,261.53125 C 491.77202,261.53049 490.01786,261.64433 488.4375,261.8125 C 485.27679,262.14885 482.78035,262.72259 480.96875,263.28125 C 479.15715,263.83991 477.89683,264.43626 477.71875,264.5 L 478.8125,267.59375 C 479.46176,267.36135 480.30299,266.94155 481.9375,266.4375 C 483.57201,265.93345 485.84916,265.40577 488.78125,265.09375 C 494.64542,264.46971 503.14133,264.78105 514.40625,268.4375 C 527.915,272.82226 539.41061,286.02533 547.75,303 C 556.08939,319.97467 561.29023,340.61227 562.46875,359.46875 C 564.9501,399.1703 556.39721,432.22226 510.5625,469.78125 C 480.78881,494.17913 449.19049,506.72075 422.96875,510.40625 C 396.74701,514.09175 376.03051,508.7335 367.875,498.375 C 367.2341,497.56097 366.3655,496.84837 364.90625,495.5 C 363.447,494.15163 361.53515,492.35095 359.375,490.0625 C 355.05471,485.4856 349.72811,478.98464 345.0625,470.5 C 335.73128,453.53072 328.98557,428.65187 338.1875,394.8125 C 351.02851,347.5907 371.39951,321.71242 392.28125,305.5625 C 413.16299,289.41258 434.62178,283.0503 449.875,275 L 448.3125,272.09375 C 433.56419,279.87757 411.69333,286.40867 390.28125,302.96875 C 368.86917,319.52883 347.99363,346.15444 335,393.9375 C 325.58212,428.57104 332.52019,454.51327 342.1875,472.09375 C 347.02116,480.88399 352.50798,487.61803 356.96875,492.34375 C 359.19914,494.70661 361.16986,496.56405 362.65625,497.9375 C 364.14264,499.31095 365.26498,500.38558 365.28125,500.40625 C 374.72587,512.40208 396.55633,517.46568 423.4375,513.6875 C 450.31867,509.90932 482.42689,497.08377 512.65625,472.3125 C 559.07798,434.27247 568.26891,399.58378 565.75,359.28125 C 564.54347,339.97668 559.2862,318.97012 550.71875,301.53125 C 542.1513,284.09238 530.25476,270.12199 515.4375,265.3125 C 506.68122,262.47032 499.43393,261.53352 493.6875,261.53125 z "
         id="path2247" />
      <path
         d="M 497.20684,267.74153 L 474.15818,267.54235 L 491.845,252.76206 C 490.1739,258.34872 492.35822,264.39199 497.20684,267.74153 z "
         style="font-size:12px;fill-rule:evenodd;stroke-width:0.625;stroke-linejoin:round"
         id="path3168" />
    </g>
    <g
       id="g2182">
      <path
         style="fill:#000000;fill-opacity:1;fill-rule:evenodd;stroke:none;stroke-width:3.29999995;stroke-linecap:butt;stroke-linejoin:miter;stroke-miterlimit:4;stroke-opacity:1"
         d="M 516.40625,223.125 C 469.15105,222.28862 411.97116,228.47566 372.28125,257.1875 C 322.33785,293.31679 278.25319,342.91137 279.09375,418.5625 C 279.51409,456.3932 291.22797,497.69276 311.875,528.03125 C 332.52203,558.36974 362.42333,577.80267 398.5625,571 C 434.00174,564.32906 454.40172,559.77644 477.5,544.375 C 500.59828,528.97356 526.27418,502.91875 572.84375,453.21875 L 572.90625,453.15625 L 572.96875,453.0625 C 615.74805,395.27507 611.31535,398.25647 618.5625,387.75 L 618.71875,387.53125 L 618.78125,387.28125 C 624.60968,367.74679 639.14098,357.51154 652.78125,352 C 659.60139,349.24423 666.19108,347.68554 671.25,346.8125 C 676.30892,345.93946 679.61302,345.78016 680.6875,345.65625 L 680.3125,342.375 C 679.80581,342.43343 675.91598,342.6602 670.6875,343.5625 C 665.45902,344.4648 658.63688,346.06637 651.53125,348.9375 C 637.39661,354.6488 621.98618,365.56972 615.75,386.03125 C 608.47326,396.61554 612.84018,393.64621 570.3125,451.09375 C 523.84949,500.67729 498.27041,526.5672 475.6875,541.625 C 453.08262,556.69745 433.33523,561.11812 397.9375,567.78125 C 363.23973,574.31259 334.81339,555.82082 314.625,526.15625 C 294.43661,496.49168 282.81928,455.70438 282.40625,418.53125 C 281.58007,344.17474 324.68666,295.70674 374.21875,259.875 C 412.86618,231.91729 469.45871,225.60712 516.375,226.4375 C 563.29129,227.26788 600.4375,235.15625 600.4375,235.15625 L 601.125,231.9375 C 601.125,231.9375 563.66145,223.96138 516.40625,223.125 z "
         id="path2245" />
      <path
         d="M 662.42527,338.05335 L 684.82742,343.47774 L 664.24795,353.85878 C 667.14323,348.79709 666.38729,342.4158 662.42527,338.05335 z "
         style="font-size:12px;fill-rule:evenodd;stroke-width:0.625;stroke-linejoin:round"
         id="path2188" />
    </g>
    <g
       id="g3171">
      <path
         style="fill:#000000;fill-opacity:1;fill-rule:evenodd;stroke:none;stroke-width:3.29999995;stroke-linecap:butt;stroke-linejoin:miter;stroke-miterlimit:4;stroke-opacity:1"
         d="M 468.1875,331.0625 L 468.3125,334.34375 C 482.1942,333.80626 492.32298,336.84491 499.75,341.9375 C 507.17702,347.03009 511.982,354.24796 515.0625,362.40625 C 521.2052,378.67434 520.25901,398.53232 519.125,410.78125 C 516.85167,424.49738 508.33274,434.46362 494.59375,442.625 C 480.85476,450.78638 461.94463,456.96227 439.5,462.78125 C 425.9435,466.2959 415.89626,465.77371 408.53125,462.9375 C 401.16624,460.10129 396.40144,454.94654 393.34375,448.75 C 387.22838,436.35692 388.47355,419.65261 391.46875,411.625 C 402.51673,382.0146 415.41502,348.96859 448.8125,336.75 L 447.6875,333.65625 C 412.74816,346.43894 399.4352,380.82559 388.375,410.46875 C 384.98361,419.55822 383.67891,436.64881 390.375,450.21875 C 393.72305,457.00372 399.16546,462.88185 407.34375,466.03125 C 415.52204,469.18065 426.32734,469.60264 440.34375,465.96875 C 462.90142,460.12046 482.03317,453.90129 496.28125,445.4375 C 510.52933,436.97371 519.95525,426.10055 522.40625,411.3125 L 522.40625,411.25 L 522.40625,411.1875 C 523.55865,398.79849 524.66701,378.49285 518.15625,361.25 C 514.90087,352.62857 509.67606,344.72941 501.59375,339.1875 C 493.51144,333.64559 482.61041,330.50405 468.1875,331.0625 z "
         id="path2249" />
      <path
         d="M 485.82064,340.02263 L 463.89582,332.9105 L 485.20507,324.12436 C 481.93329,328.95125 482.20181,335.37154 485.82064,340.02263 z "
         style="font-size:12px;fill-rule:evenodd;stroke-width:0.625;stroke-linejoin:round"
         id="path3177" />
    </g>
  </g>
</svg>
